<?xml version="1.0" encoding="utf-8"?>
<!-- Generator: Adobe Illustrator 25.0.1, SVG Export Plug-In . SVG Version: 6.00 Build 0)  -->
<svg version="1.0" id="Capa_1" xmlns="http://www.w3.org/2000/svg" xmlns:xlink="http://www.w3.org/1999/xlink" x="0px" y="0px"
	 viewBox="0 0 172.6199951 53.8153687" style="enable-background:new 0 0 172.6199951 53.8153687;" xml:space="preserve">
<style type="text/css">
	.st0{fill:#212C55;}
	.st1{fill-rule:evenodd;clip-rule:evenodd;fill:#212C55;}
	.st2{fill:#FFFFFF;}
	.st3{fill:#FFFEF8;}
	.st4{fill:#E5142C;}
</style>
<g>
	<path class="st0" d="M61.1659088,20.4407043h-8.927002l-1.2679977,2.9830017h-4.1780014l7.8079987-17.4060059h4.2280045
		l7.8079987,17.4060059h-4.2030029L61.1659088,20.4407043z M56.7149124,9.9466858l-3.0090027,7.0620117h5.9929962
		L56.7149124,9.9466858z"/>
	<polygon class="st0" points="71.9346085,6.0178828 71.9346085,19.8678894 80.6376038,19.8678894 80.6376038,23.4238892 
		68.055603,23.4238892 68.055603,6.0178828 	"/>
	<polygon class="st0" points="84.194313,9.4740906 78.8973083,9.4740906 78.8973083,6.0180964 93.3453064,6.0180964 
		93.3453064,9.4740906 88.0493088,9.4740906 88.0493088,23.4241028 84.194313,23.4241028 	"/>
	<rect x="95.2856064" y="6.0182796" class="st0" width="3.8540039" height="17.4060059"/>
	<polygon class="st0" points="114.7064133,17.3319702 114.4574051,11.8609924 114.4574051,6.0179744 118.361412,6.0179744 
		118.361412,23.4239807 115.0294113,23.4239807 106.3764114,12.2839966 106.5254135,18.0029907 106.5254135,23.4239807 
		102.5964127,23.4239807 102.5964127,6.0179744 105.9284134,6.0179744 	"/>
	<g>
		<path class="st0" d="M130.3982849,6.0182796c1.7570038,0,3.20401,0.401001,4.3400116,1.2059937
			c1.1349945,0.8030095,1.7029877,1.9760137,1.7029877,3.5180058c0,1.6579895-0.7709961,2.8430176-2.3129883,3.5559998
			c1.0609894,0.381012,1.8359985,1.053009,2.3249969,2.0140076c0.4889984,0.9620056,0.6340027,1.9729919,0.4349976,3.0339966
			c-0.496994,2.7189941-2.6109924,4.0780029-6.3410034,4.0780029h-8.7279892V6.0182796H130.3982849z M125.6243057,12.7812805
			h4.7249832c1.5079956,0,2.2620087-0.5469971,2.2620087-1.6409912c0-0.5299988-0.1900024-0.9570007-0.5720062-1.2810059
			c-0.3809967-0.322998-0.9279938-0.4850159-1.6410065-0.4850159h-4.7739792V12.7812805z M125.6243057,20.0422668h4.7739792
			c1.7080078,0,2.5620117-0.6629944,2.5620117-1.9889832c0-0.6300049-0.223999-1.1279907-0.6720123-1.4920044
			c-0.446991-0.3649902-1.0939941-0.5469971-1.9389954-0.5469971h-4.7249832V20.0422668z"/>
		<path class="st0" d="M151.4865875,20.4407043h-8.927002l-1.2679901,2.9830017h-4.178009l7.8079987-17.4060059h4.227005
			l7.8090057,17.4060059h-4.2030029L151.4865875,20.4407043z M147.0355988,9.9466858l-3.0090027,7.0620117h5.9929962
			L147.0355988,9.9466858z"/>
		<path class="st0" d="M57.3977127,28.0273743v8.5280151c0,0.8619995-0.1500015,1.6430054-0.451004,2.3420105
			c-0.3000031,0.6999817-0.6959991,1.2649841-1.185997,1.6959839c-0.4900055,0.4309998-1.052002,0.7650146-1.6860046,1
			c-0.6329956,0.2350159-1.2770004,0.3529968-1.9309998,0.3529968c-0.6529999,0-1.2969971-0.1149902-1.9309998-0.3429871
			c-0.6329956-0.2290039-1.1949997-0.5589905-1.685997-0.9899902c-0.4899979-0.4320068-0.8850021-1-1.1860046-1.7060242
			c-0.2999954-0.7059937-0.4509964-1.4899902-0.4509964-2.3519897v-8.5280151h1.0390015v8.5280151
			c0,0.7049866,0.1210022,1.3460083,0.362999,1.92099c0.2419968,0.5750122,0.5589981,1.0390015,0.9509964,1.3919983
			c0.3920059,0.3529968,0.8430023,0.6270142,1.3530045,0.822998c0.5089951,0.1960144,1.0250015,0.2940063,1.5479965,0.2940063
			c0.5230026,0,1.0390015-0.0979919,1.5490036-0.2940063c0.5099945-0.1959839,0.9599991-0.4700012,1.3529968-0.822998
			c0.3919983-0.3529968,0.7089996-0.8169861,0.9500046-1.3919983c0.2419968-0.5749817,0.362999-1.2160034,0.362999-1.92099
			v-8.5280151H57.3977127z"/>
		<polygon class="st0" points="61.2391129,28.0273743 70.4721069,39.3783875 70.4721069,28.0273743 71.5111084,28.0273743 
			71.5111084,41.7503967 71.1001129,41.7503967 61.8471069,30.4194031 61.8471069,41.7503967 60.7881088,41.7503967 
			60.7881088,28.0273743 		"/>
		<rect x="74.7066116" y="32.0272827" class="st0" width="0.9599991" height="9.7229919"/>
		<polygon class="st0" points="89.9380112,28.0273743 84.2920074,41.7893982 83.1550064,41.7893982 77.5090103,28.0273743 
			78.6460114,28.0273743 83.7240067,40.5733948 88.8010101,28.0273743 		"/>
		<polygon class="st0" points="93.1718063,34.3596802 101.2098007,34.3596802 101.2098007,35.3197021 93.1718063,35.3197021 
			93.1718063,40.7306824 101.8367996,40.7306824 101.8367996,41.7507019 92.1328049,41.7507019 92.1328049,28.02771 
			101.601799,28.02771 101.601799,29.02771 93.1718063,29.02771 		"/>
		<path class="st0" d="M115.4601974,41.7502747h-1.3909912l-4.7440033-5.1950073h-3.7449951v5.1950073h-1.0590057V28.0272827
			h6.0390015c1.4109955,0,2.5119934,0.4219971,3.3029938,1.2650146c0.7900085,0.84198,1.1920013,1.8459778,1.2050018,3.0089722
			c0.0130005,1.1890259-0.3690033,2.1860046-1.1470032,2.9900208c-0.7769928,0.8029785-1.8779907,1.2049866-3.3029938,1.2049866
			L115.4601974,41.7502747z M105.5802078,35.5552673h4.8619995c1.1499939,0,2.0130005-0.2939758,2.5879974-0.8819885
			c0.5749969-0.5879822,0.8679962-1.3850098,0.8819885-2.3919983c0.0130005-0.875-0.2749939-1.6399841-0.8629913-2.2929993
			c-0.5879974-0.6539917-1.4179993-0.9809875-2.4889984-0.9809875h-4.9799957V35.5552673z"/>
		<path class="st0" d="M126.6143112,30.6739807c-0.4570007-0.7319946-1.029007-1.2219849-1.7150116-1.4699707
			c-0.6869965-0.2490234-1.5-0.3790283-2.4409943-0.3920288c-0.6269989,0-1.2319946,0.0720215-1.8130035,0.2150269
			c-0.5820007,0.1439819-1.1179962,0.4379883-1.6080017,0.8819885c-0.4899902,0.4450073-0.7350006,1.0069885-0.7350006,1.6870117
			c0,0.3389893,0.0780029,0.6399841,0.2350006,0.901001c0.1569977,0.2619934,0.3430023,0.473999,0.5590057,0.6369934
			c0.2149963,0.1640015,0.5289917,0.3169861,0.9409943,0.4609985c0.4120026,0.1439819,0.7839966,0.2519836,1.1170044,0.3240051
			c0.3339996,0.0709839,0.7810059,0.1600037,1.3430023,0.2639771c1.7119904,0.3270264,2.8820038,0.6470032,3.5090027,0.9609985
			c1.2549896,0.6140137,1.8819885,1.6070251,1.8819885,2.980011c0,0.7309875-0.1729889,1.3619995-0.5189972,1.8909912
			c-0.3470001,0.5290222-0.8009949,0.928009-1.3629913,1.1960144c-0.5620117,0.2680054-1.1340027,0.4609985-1.7150116,0.5780029
			c-0.5820007,0.117981-1.1929932,0.177002-1.8329926,0.177002c-1.1629944,0-2.2680054-0.2520142-3.3130035-0.7550049
			c-1.0460052-0.5029907-1.8170013-1.2449951-2.3130035-2.2250061l0.9400024-0.4700012
			c0.3930054,0.7839966,1.0429993,1.3950195,1.951004,1.8330078c0.9089966,0.4370117,1.8199921,0.6560059,2.7350006,0.6560059
			c0.4830017,0,0.9539948-0.0390015,1.4109955-0.1180115c0.4580078-0.0780029,0.9219971-0.2149963,1.3919983-0.4110107
			c0.4710083-0.1959839,0.8500061-0.4969788,1.1370087-0.9019775c0.2879944-0.4049988,0.4319916-0.8950195,0.4319916-1.4700012
			c0-0.3269958-0.0529938-0.6239929-0.1569977-0.8919983c-0.1049957-0.2680054-0.2779999-0.5-0.5200043-0.6960144
			c-0.2409973-0.1959839-0.4769897-0.3590088-0.7049866-0.4899902c-0.2290039-0.131012-0.553009-0.2550049-0.9710083-0.3730164
			c-0.4179993-0.1169739-0.7579956-0.2049866-1.0200043-0.2639771c-0.2610016-0.059021-0.6399994-0.1340027-1.1360016-0.2260132
			c-0.548996-0.1040039-0.970993-0.1889954-1.2649994-0.2550049c-0.2939911-0.0650024-0.6759949-0.1659851-1.1469879-0.3029785
			c-0.4700012-0.1380005-0.8330078-0.2850037-1.0880127-0.4410095c-0.2539978-0.1570129-0.5189972-0.3529968-0.7939911-0.5880127
			c-0.2740021-0.2359924-0.473999-0.5169983-0.5980072-0.8439941c-0.1239929-0.3259888-0.1859894-0.6919861-0.1859894-1.0969849
			c-0.0130005-0.6930237,0.1409912-1.2980042,0.4609985-1.8140259c0.3199921-0.5159912,0.7509918-0.9109802,1.2939911-1.1859741
			c0.5420074-0.2740173,1.1009979-0.4770203,1.6760101-0.6080017c0.5749969-0.1300049,1.1699982-0.1950073,1.7839966-0.1950073
			c1.1369934,0,2.1009979,0.1560059,2.8909912,0.4700012c0.7910004,0.3129883,1.5,0.9349976,2.1270142,1.8619995
			L126.6143112,30.6739807z"/>
		<rect x="130.0056" y="32.0272827" class="st0" width="0.9609985" height="9.7229919"/>
		<polygon class="st0" points="137.4741058,28.9880676 132.5140991,28.9880676 132.5140991,28.0470886 143.493103,28.0470886 
			143.493103,28.9880676 138.5330963,28.9880676 138.5330963,41.7500916 137.4741058,41.7500916 		"/>
		<polygon class="st0" points="146.4326019,34.3596802 154.4705963,34.3596802 154.4705963,35.3197021 146.4326019,35.3197021 
			146.4326019,40.7306824 155.0975952,40.7306824 155.0975952,41.7507019 145.3936005,41.7507019 145.3936005,28.02771 
			154.8625946,28.02771 154.8625946,29.02771 146.4326019,29.02771 		"/>
		<path class="st0" d="M166.2516022,30.6739807c-0.4570007-0.7319946-1.029007-1.2219849-1.7150116-1.4699707
			c-0.6869965-0.2490234-1.5-0.3790283-2.4409943-0.3920288c-0.6269989,0-1.2319946,0.0720215-1.8130035,0.2150269
			c-0.5820007,0.1439819-1.1179962,0.4379883-1.6080017,0.8819885c-0.4899902,0.4450073-0.7350006,1.0069885-0.7350006,1.6870117
			c0,0.3389893,0.0780029,0.6399841,0.2350006,0.901001c0.1569977,0.2619934,0.3430023,0.473999,0.5590057,0.6369934
			c0.2149963,0.1640015,0.5289917,0.3169861,0.9409943,0.4609985c0.4110107,0.1439819,0.7839966,0.2519836,1.1170044,0.3240051
			c0.3339996,0.0709839,0.7810059,0.1600037,1.3430023,0.2639771c1.7119904,0.3270264,2.8820038,0.6470032,3.5090027,0.9609985
			c1.2549896,0.6140137,1.8819885,1.6070251,1.8819885,2.980011c0,0.7309875-0.1729889,1.3619995-0.5189972,1.8909912
			c-0.3470001,0.5290222-0.8009949,0.928009-1.3629913,1.1960144c-0.5620117,0.2680054-1.1340027,0.4609985-1.7150116,0.5780029
			c-0.5820007,0.117981-1.1929932,0.177002-1.8329926,0.177002c-1.1629944,0-2.2680054-0.2520142-3.3130035-0.7550049
			c-1.0460052-0.5029907-1.8170013-1.2449951-2.3139954-2.2250061l0.9409943-0.4700012
			c0.3930054,0.7839966,1.0429993,1.3950195,1.951004,1.8330078c0.9089966,0.4370117,1.8199921,0.6560059,2.7350006,0.6560059
			c0.4830017,0,0.9539948-0.0390015,1.4109955-0.1180115c0.4580078-0.0780029,0.9219971-0.2149963,1.3919983-0.4110107
			c0.4710083-0.1959839,0.8500061-0.4969788,1.1370087-0.9019775c0.2879944-0.4049988,0.4319916-0.8950195,0.4319916-1.4700012
			c0-0.3269958-0.0529938-0.6239929-0.1569977-0.8919983c-0.1049957-0.2680054-0.2779999-0.5-0.5200043-0.6960144
			c-0.2409973-0.1959839-0.4769897-0.3590088-0.7049866-0.4899902c-0.2290039-0.131012-0.553009-0.2550049-0.9710083-0.3730164
			c-0.4179993-0.1169739-0.7579956-0.2049866-1.0200043-0.2639771c-0.2610016-0.059021-0.6399994-0.1340027-1.1360016-0.2260132
			c-0.548996-0.1040039-0.970993-0.1889954-1.2649994-0.2550049c-0.2939911-0.0650024-0.6759949-0.1659851-1.1469879-0.3029785
			c-0.4700012-0.1380005-0.8330078-0.2850037-1.0880127-0.4410095c-0.2539978-0.1570129-0.5189972-0.3529968-0.7939911-0.5880127
			c-0.2740021-0.2359924-0.473999-0.5169983-0.5980072-0.8439941c-0.1239929-0.3259888-0.1859894-0.6919861-0.1859894-1.0969849
			c-0.0130005-0.6930237,0.1409912-1.2980042,0.4609985-1.8140259c0.3199921-0.5159912,0.7509918-0.9109802,1.2939911-1.1859741
			c0.5420074-0.2740173,1.1009979-0.4770203,1.6760101-0.6080017c0.5749969-0.1300049,1.1699982-0.1950073,1.7839966-0.1950073
			c1.1369934,0,2.1009979,0.1560059,2.8909912,0.4700012c0.7910004,0.3129883,1.5,0.9349976,2.1270142,1.8619995
			L166.2516022,30.6739807z"/>
		<rect x="169.6426086" y="32.0272827" class="st0" width="0.9609985" height="9.7229919"/>
		<rect x="130.0056" y="28.5492554" class="st0" width="0.9600067" height="2.9460144"/>
		<rect x="74.6906128" y="28.5492554" class="st0" width="0.9599991" height="2.9460144"/>
		<rect x="51.6356125" y="28.5492554" class="st0" width="0.9609985" height="2.9460144"/>
		<rect x="169.6185913" y="28.5492554" class="st0" width="0.9600067" height="2.9460144"/>
		<path class="st0" d="M165.0904846,12.756897c-1.2939911-0.1159973-2.2429962-0.3109741-2.8479919-0.5849915
			c-0.6049957-0.2730103-0.9069977-0.7749939-0.9069977-1.5039978c0-0.5799866,0.2980042-1.0440063,0.894989-1.3919983
			c0.5970001-0.348999,1.3340149-0.5230103,2.2130127-0.5230103c0.7460022,0,1.4879913,0.125,2.2259979,0.3730164
			c0.7369995,0.2489929,1.3379974,0.6139832,1.802002,1.0939941l2.4369965-2.1380005
			c-0.8610077-0.9949956-1.802002-1.69101-2.8220062-2.0889897c-1.019989-0.3980103-2.2419891-0.5970154-3.6679993-0.5970154
			c-1.9059906,0-3.526001,0.4689941-4.8609924,1.4049988c-1.3350067,0.9370117-2.0100098,2.2340093-2.0270081,3.8919988
			c-0.0159912,0.9779968,0.1529999,1.8110046,0.5100098,2.4990234c0.3559875,0.6879883,0.8829956,1.2229919,1.5789948,1.6039734
			c0.6959991,0.381012,1.4129944,0.6630249,2.151001,0.8450012c0.7369995,0.1830139,1.6289978,0.322998,2.6730042,0.4230042
			c1.2099915,0.098999,2.1009979,0.3359985,2.6729889,0.7090149c0.5720062,0.3729858,0.8500061,0.914978,0.8330078,1.6279907
			c0,0.6140137-0.322998,1.1109924-0.9700012,1.4920044c-0.6459961,0.3819885-1.4830017,0.571991-2.5110016,0.571991
			c-0.9620056,0-1.9309998-0.2070007-2.9100037-0.6210022c-0.9769897-0.414978-1.7819977-1.0279846-2.4120026-1.8410034
			l-2.3119965,2.4130249c0.6959991,1.1769714,1.7409973,2.071991,3.1330109,2.6849976
			c1.3929901,0.6139832,2.8849945,0.9119873,4.4759979,0.894989c1.3099976-0.0159912,2.5029907-0.2109985,3.5809937-0.5840149
			c1.0769958-0.3729858,1.9730072-0.9949951,2.6849976-1.8649902c0.7129974-0.8699951,1.0700073-1.9190063,1.0700073-3.1459961
			C171.7794952,15.0189209,169.5494843,13.1379089,165.0904846,12.756897 M164.7584991,23.704895l-1.2090149-1.4909973
			l1.2090149-1.4889832l1.243988,1.446991L164.7584991,23.704895z"/>
		<path class="st1" d="M37.9546127,2.2369685C31.4186077-0.0340275,7.861609-0.041016,1.3246105,2.2309871v4.8089905
			c6.5369987-2.2720032,30.093998-2.2649841,36.6300011,0.006012V2.2369685z"/>
		<path class="st2" d="M19.6394062,53.8153687c-0.2040024-0.1549988-1.6210022-1.1589966-9.5800009-7.7579956
			c-10.4249992-8.8359985-9.1369972-12.7059937-9.1959991-12.8849792V11.9573669v-0.25V7.8113704V1.7433773
			c6.7019997-2.32901,30.8549995-2.321991,37.5569954,0.006012v9.9649963l-0.0039978,0.2489929v21.2149963
			c-0.0589981,0.1790161,1.2290039,4.0509949-9.1960011,12.8869934
			C21.2854061,52.6443787,19.8524036,53.6773987,19.6394062,53.8153687"/>
		<path class="st3" d="M19.6394062,53.2041931c-0.019001-0.0979919-0.9730034,0.9960022,9.343998-7.5579834
			c10.1680012-8.6180115,8.9120045-12.3940125,8.9700031-12.5690002V8.3562012
			C31.4174023,6.0852046,7.8634057,6.0791926,1.3264072,8.3502197v24.7209778
			c0.0579987,0.1750183-1.1980019,3.9500122,8.968998,12.5670166
			C20.6134052,54.1932068,19.6594028,53.1062012,19.6394062,53.2041931"/>
		<path class="st1" d="M37.9564056,7.2092891C31.4204006,4.938293,7.8634019,4.9313045,1.3264034,7.2033076v4.808991
			c6.5369987-2.2720032,30.093998-2.2649841,36.6300011,0.006012V7.2092891z"/>
		<path class="st1" d="M37.9546127,2.2369685C31.4186077-0.0340275,7.861609-0.041016,1.3246105,2.2309871v4.8089905
			c6.5369987-2.2720032,30.093998-2.2649841,36.6300011,0.006012V2.2369685z"/>
		<path class="st2" d="M6.2140069,6.5588984C6.2900033,6.4829097,6.3810067,6.4368892,6.4860063,6.421905
			C6.5900064,6.4068904,6.6900048,6.4248958,6.785006,6.4768977c0.0949974,0.0509949,0.1499977,0.1329956,0.1669998,0.2460022
			C6.9670053,6.8319087,6.936007,6.9228816,6.8590035,6.9978938c-0.0760002,0.0740051-0.1669998,0.118988-0.2719994,0.1340027
			c-0.1040001,0.0149841-0.2039986-0.0020142-0.2989998-0.052002C6.193007,7.0299067,6.1380067,6.9498897,6.1230035,6.8408809
			C6.1070046,6.7288814,6.1370034,6.6348872,6.2140069,6.5588984 M7.436007,10.5778809L6.9800057,7.3919063L6.2550035,7.4959102
			l0.4550018,3.1859746L7.436007,10.5778809z"/>
		<path class="st2" d="M10.0969076,7.7997737C9.9989042,7.7218013,9.8779058,7.6667781,9.7339048,7.6367793
			C9.5889044,7.6067805,9.4459066,7.5987849,9.3059072,7.6147761C9.1389074,7.6327815,9.0029058,7.6807857,8.8979063,7.7567744
			c-0.105999,0.0770264-0.1529999,0.1679993-0.1409988,0.2750249C8.7709074,8.165802,8.8389044,8.2518005,8.9589071,8.2887878
			C9.0789061,8.3267822,9.2619047,8.342804,9.5089064,8.336792c0.8509979-0.0240173,1.3110008,0.2749939,1.3789978,0.8970032
			c0.0250015,0.2250061-0.0209999,0.4249878-0.1379967,0.6000061c-0.1170006,0.1749878-0.2740021,0.3079834-0.4700012,0.3989868
			s-0.4179993,0.1520081-0.6650009,0.1820068c-0.3009987,0.0359802-0.5890007,0.0130005-0.8649979-0.0710144
			C8.474906,10.2608032,8.2589064,10.1177979,8.1029043,9.915802l0.3889999-0.4910278
			c0.1360016,0.1360168,0.3000031,0.2320251,0.493,0.2880249c0.1940002,0.0549927,0.3810005,0.072998,0.5629997,0.0529785
			c0.1940002-0.0220032,0.3490028-0.0739746,0.4630013-0.1579895c0.1150017-0.0830078,0.1660004-0.1820068,0.1529999-0.2940063
			c-0.0109978-0.1309814-0.0750008-0.2250061-0.1899986-0.2819824C9.8579054,8.9757996,9.6849051,8.9507751,9.4539061,8.9577942
			C9.2539053,8.9607849,9.0829039,8.9537964,8.9399061,8.935791C8.7969046,8.9177856,8.6549063,8.8807983,8.5159063,8.8257751
			c-0.1389999-0.0559998-0.25-0.1429749-0.3310013-0.2619934c-0.0820007-0.117981-0.1300011-0.2680054-0.1469994-0.447998
			c-0.0309982-0.3049932,0.0709991-0.5570073,0.3040009-0.756989c0.2329979-0.2000122,0.5299988-0.3200073,0.8909988-0.3600159
			c0.269001-0.0299988,0.5040016-0.0189819,0.7050018,0.03302c0.2010002,0.0509949,0.3929977,0.1600037,0.5760002,0.3240051
			L10.0969076,7.7997737z"/>
		<polygon class="st2" points="12.2684088,7.4710689 11.2634077,7.5440974 11.2174063,6.9070735 13.9584074,6.7080989 
			14.004405,7.3450923 12.9994078,7.4180903 13.1854086,9.9890747 12.4544058,10.0420837 		"/>
		<path class="st2" d="M16.9159069,9.2549133l-1.696002,0.0629883L14.998908,9.8778992l-0.7940025,0.0290222l1.3660011-3.2710271
			l0.8030005-0.0299988l1.6019974,3.1620183l-0.7980003,0.0299988L16.9159069,9.2549133z M15.998908,7.3468928L15.474906,8.6729126
			l1.138999-0.0419922L15.998908,7.3468928z"/>
		<polygon class="st2" points="20.8782063,8.6505737 20.8362026,7.6395869 20.8412037,6.5596004 21.5842037,6.5635982 
			21.5672054,9.7796021 20.934206,9.7765808 19.2982044,7.7095942 19.3212032,8.7666016 19.316206,9.7685852 18.5692043,9.7645874 
			18.5862026,6.5485835 19.2192059,6.5515742 		"/>
		<path class="st2" d="M24.3269062,6.6643062c0.3339996,0.0150146,0.6049995,0.1019897,0.8150024,0.2600098
			c0.2089996,0.1579895,0.3069992,0.3789978,0.2939987,0.6640015c-0.0130005,0.3049927-0.170002,0.5179753-0.4680023,0.6369939
			c0.1980019,0.07901,0.3400002,0.2089844,0.4250031,0.3909912c0.0849991,0.1820068,0.1040001,0.3699951,0.0569992,0.5639954
			c-0.1170006,0.4980164-0.5289993,0.7310181-1.237999,0.6990051l-1.6590004-0.072998l0.1439972-3.2139897L24.3269062,6.6643062z
			 M23.3039074,9.2142944l0.9069977,0.0400085c0.3250008,0.0140076,0.4920006-0.1009827,0.5030022-0.3460083
			c0.0060005-0.1159973-0.0330009-0.2099915-0.1150017-0.2809753c-0.0819969-0.0710144-0.2029991-0.1100159-0.3639984-0.1170044
			l-0.8979988-0.0400085L23.3039074,9.2142944z M23.3639088,7.8732905l0.8979988,0.0400085
			c0.2859993,0.0130005,0.4339981-0.0820007,0.4430008-0.2839966c0.0049973-0.0979919-0.0279999-0.1789856-0.0979996-0.2409973
			c-0.0700035-0.0629883-0.1720009-0.0979919-0.3080025-0.1040039l-0.9069977-0.0400085L23.3639088,7.8732905z"/>
		<path class="st2" d="M29.4671078,7.0442805l-0.156002,1.7910161c-0.0400009,0.4670105-0.1969986,0.8169861-0.468998,1.0499878
			c-0.2720032,0.2330017-0.6300011,0.3380127-1.0740013,0.3150024c-0.4599991-0.0249939-0.8300018-0.1779785-1.1090012-0.4609985
			c-0.2799988-0.2829895-0.3979988-0.6719971-0.3549995-1.1659851l0.156002-1.7910161l0.7299995,0.0639954l-0.1550026,1.790009
			c-0.0249977,0.2839966,0.0330009,0.506012,0.1739998,0.6660156c0.1420021,0.1600037,0.3479996,0.2460022,0.6189995,0.2569885
			c0.4550018,0.0090027,0.7060013-0.2539978,0.7530022-0.7879944l0.1549988-1.7910161L29.4671078,7.0442805z"/>
		<polygon class="st2" points="31.2577038,7.2552791 30.9307003,9.7952881 32.571701,10.0072937 32.4877014,10.6593018 
			30.1146984,10.3522949 30.5257015,7.1603084 		"/>
		<polygon class="st2" points="20.9087086,0.918182 21.9297085,2.2461848 19.6427059,5.1911922 17.3497066,2.2461848 
			18.3707066,0.918182 		"/>
		<polygon class="st2" points="15.3542089,1.3271786 16.2302074,2.3881831 14.4372053,4.8702083 12.4712057,2.5191951 
			13.2712088,1.4002072 		"/>
		<polygon class="st2" points="10.292407,1.5724789 11.2234068,2.5864863 9.5624037,5.1585078 7.4754052,2.9134822 
			8.2164068,1.7544857 		"/>
		<polygon class="st2" points="5.206408,1.9740902 6.2054048,2.9201045 4.7284074,5.6021113 2.4904048,3.5090938 
			3.1484058,2.3001094 		"/>
		<polygon class="st2" points="24.0925083,1.3271786 23.2165051,2.3881831 25.0095081,4.8702083 26.9755077,2.5191951 
			26.1755047,1.4002072 		"/>
		<polygon class="st2" points="29.1542072,1.5724789 28.2232037,2.5864863 29.8842068,5.1585078 31.9712048,2.9134822 
			31.2301998,1.7544857 		"/>
		<polygon class="st2" points="34.2402115,2.1355891 33.2412109,3.0816035 34.7182083,5.7636104 36.9562073,3.6705928 
			36.2982101,2.4616084 		"/>
		<path class="st4" d="M37.9536057,33.0770874V12.2621155c-6.5370045-2.2710266-30.0900021-2.2780151-36.6269989-0.007019V33.071106
			c0.0579987,0.1749878-1.1980019,3.9499817,8.968998,12.5669861c7.2999983,6.053009,8.9569998,7.2790222,9.2949972,7.5130005
			l0.0490036,0.03302l0.0599976-0.0390015c0.3619995-0.25,2.0600014-1.5100098,9.2840004-7.4990234
			C39.1516037,37.0281067,37.8955994,33.2521057,37.9536057,33.0770874"/>
		<path class="st2" d="M19.6399059,52.4605713l-0.0369987-0.0249939l-0.0769997-0.04599l-0.1230011-0.0890198
			c-0.4519997-0.3239746-2.2290001-1.6719971-8.7559996-7.0839844c-7.8239975-6.631012-8.7339973-10.3640137-8.579998-11.9980164
			c0.0019989-0.0149841,0.0029984-0.0279846,0.0039978-0.0389709L2.0699069,33.141571V12.9985657l0.1479988-0.0519714
			c2.8810003-1.0010071,9.545002-1.6230164,17.3920021-1.6230164c7.8730011,0,14.5599995,0.6239929,17.4519978,1.6289978
			l0.1480026,0.0509949l-0.0009995,20.1809998c0.0009995,0.0110168,0.0019989,0.0240173,0.0029984,0.0390015
			c0.1549988,1.6350098-0.7549973,5.3690186-8.5769978,11.9990234c-6.5559998,5.4359741-8.3170013,6.7659912-8.7610016,7.0809937
			 M2.5099094,33.1235657c0.0039978,0.0390015,0,0.07901-0.0050011,0.1360168
			c-0.3520012,3.743988,5.7739983,9.3739929,8.4239998,11.6199951c6.4840002,5.3760071,8.256999,6.723999,8.7120008,7.0509949
			c0.4519997-0.322998,2.2150002-1.6579895,8.7109985-7.0449829c2.6489983-2.2449951,8.7759991-7.875,8.4230022-11.6210022
			c-0.0060043-0.0559998-0.0090027-0.0970154-0.0050049-0.1350098V13.3175659
			c-2.9259949-0.9599915-9.4649982-1.5539856-17.1599979-1.5539856c-7.6689978,0-14.1850014,0.5920105-17.0999985,1.5490112
			V33.1235657z"/>
		<path class="st2" d="M27.9016056,31.364502h-7.5510025v-0.4440002c0.6669998-0.0429993,1.2180023-0.1269836,1.6580009-0.2559814
			c0.4389992-0.1289978,0.6590004-0.2870178,0.6590004-0.4730225c0-0.0780029-0.0079994-0.17099-0.0250015-0.2829895
			c-0.0179977-0.1100159-0.0439987-0.2080078-0.0769997-0.2940063l-1.5050011-4.0709839h-6.3759985
			c-0.2369995,0.5979919-0.4329987,1.1199951-0.5809975,1.5629883c-0.1500015,0.4429932-0.2849998,0.8529968-0.4040031,1.2290039
			c-0.1109962,0.3659973-0.1889992,0.6659851-0.2319984,0.894989c-0.0429993,0.230011-0.0639992,0.4190063-0.0639992,0.5630188
			c0,0.3410034,0.2700005,0.6049805,0.8069992,0.7929993c0.5369987,0.1889954,1.1430016,0.2999878,1.8179998,0.3339844v0.4440002
			H9.1886053v-0.4440002c0.2220001-0.0159912,0.5-0.0669861,0.8320007-0.1470032
			c0.3320007-0.0820007,0.605999-0.1900024,0.8190002-0.3269958c0.3409996-0.2299805,0.6049995-0.4719849,0.7939987-0.7229919
			c0.1860008-0.2510071,0.3709984-0.598999,0.5499992-1.0440063c0.9109993-2.2770081,1.920002-4.8379822,3.0209999-7.6789856
			c1.1000013-2.8410034,2.0810003-5.3710022,2.9420004-7.5890198h1.026001l6.0519981,15.6660156
			c0.1280022,0.3320007,0.2729988,0.6019897,0.4360008,0.8059998c0.1619987,0.2049866,0.3880005,0.4060059,0.6780014,0.6019897
			c0.1959991,0.118988,0.4519997,0.2189941,0.7689972,0.3000183c0.3150024,0.0809937,0.5779991,0.1269836,0.7940025,0.1349792
			V31.364502z M20.8876057,24.4794922l-2.75-7.0479736l-2.7110014,7.0479736H20.8876057z"/>
		<polygon class="st2" points="20.8110065,31.9158936 20.0090046,32.9039001 20.8110065,33.8919067 21.6370029,32.8749084 		"/>
		<path class="st2" d="M23.6869068,30.798584v0.3850098c0.2359962,0.0140076,0.5759964,0.0740051,1.0219994,0.177002
			c0.4449997,0.1010132,0.7959976,0.2460022,1.0550003,0.4290161c0.2269974,0.1629944,0.3999977,0.5019836,0.5189972,1.0209961
			c0.1160011,0.5189819,0.177002,1.1860046,0.177002,2.0029907v6.42099c0,0.4400024-0.0639992,0.8789978-0.1879997,1.3130188
			c-0.1259995,0.4339905-0.3390007,0.8479919-0.6410027,1.2460022c-0.317997,0.4189758-0.75,0.7579956-1.2979965,1.0159912
			c-0.5480003,0.256012-1.2270012,0.3850098-2.0360031,0.3850098c-0.8619995,0-1.5399971-0.1289978-2.0329971-0.3850098
			c-0.493-0.2579956-0.8830032-0.5880127-1.1690025-0.9949951c-0.2729988-0.3970032-0.4559975-0.8240051-0.5480003-1.2860107
			c-0.0919991-0.4580078-0.1359978-0.8970032-0.1359978-1.3160095v-8.6499939c0-0.242981,0.0410004-0.4679871,0.1259995-0.6739807
			c0.0839996-0.2050171,0.2509995-0.3529968,0.5019989-0.4410095c0.1280022-0.0429993,0.3220024-0.0929871,0.5740013-0.1419983
			v-0.507019h-5.6309996v0.3850098c0.1840019,0.0140076,0.420002,0.0540161,0.7070007,0.1149902
			c0.2859993,0.0640259,0.5229988,0.1460266,0.7060013,0.2480164c0.2579994,0.1470032,0.428997,0.3080139,0.5139999,0.4809875
			c0.0829964,0.1740112,0.1269979,0.3890076,0.1269979,0.6459961v9.2630005c0,0.5910034,0.1240005,1.1550293,0.3740005,1.6970215
			c0.2509995,0.539978,0.6229973,1.0189819,1.1170006,1.4400024c0.4989967,0.4199829,1.1189995,0.7529907,1.8539963,0.9979858
			c0.7350006,0.2480164,1.5760002,0.3710022,2.5180016,0.3710022c0.5880013,0,1.2060013-0.0880127,1.848999-0.2600098
			c0.644001-0.17099,1.257-0.4579773,1.8390007-0.8549805c0.5880013-0.4120178,1.0629997-0.9380188,1.4239998-1.5800171
			c0.3610001-0.6389771,0.5410004-1.3939819,0.5410004-2.2619934v-6.8129883c0-0.7660217,0.0480003-1.4129944,0.144001-1.9440002
			c0.0950012-0.5299988,0.2679977-0.8800049,0.519001-1.0490112c0.25-0.1610107,0.5739975-0.2829895,0.9709969-0.3649902
			c0.3980026-0.0800171,0.7000008-0.1239929,0.9059982-0.131012V30.798584H23.6869068z"/>
	</g>
</g>
</svg>
