<svg xmlns="http://www.w3.org/2000/svg" viewBox="0 0 101.245 100.42">
  <defs>
    <style>
      .cls-1 {
        fill: #005581;
      }

      .cls-2 {
        fill: #d9291c;
      }

      .cls-3 {
        fill: #961b2f;
      }
    </style>
  </defs>
  <g id="Layer_2" data-name="Layer 2">
    <g id="Layer_1-2" data-name="Layer 1">
      <g>
        <path class="cls-1" d="M9.053,30.223c-2.462.113-2.874.1-3.974.15.743.814,1.319,1.378,2.7,2.908L8.711,34.3l1.719-4.135ZM15.022,28.4a8.919,8.919,0,0,0-.508,1.049,10.475,10.475,0,0,0-.43,1.21l-.069-.01c-.014-.222.018-.6-.436-.6-.74,0-1.454.026-2.71.1L9.017,34.6c.846.912,1.329,1.4,1.865,1.929.315.33.569.021.738-.125l.056.041a4.285,4.285,0,0,0-.388.759,4.937,4.937,0,0,0-.271.824l-.068-.011a1.41,1.41,0,0,0-.4-1.031c-.7-.831-1.26-1.479-2.92-3.341C5.953,31.782,4.5,30.243,3.8,29.5l.077-.184c1.014-.011,3.141-.1,5.641-.216,2.491-.137,3.212-.179,4.3-.27a1.8,1.8,0,0,0,1.152-.476Z"/>
        <path class="cls-1" d="M15.778,13.891a5.886,5.886,0,0,0-3.031,2.176l3.41,2.953c1.748,1.516,2.478,2.147,3.23,2.755a.666.666,0,0,0,.783.062l.04.056a7.172,7.172,0,0,0-.738.75,7.017,7.017,0,0,0-.636.835l-.061-.031a.669.669,0,0,0-.173-.766c-.708-.657-1.449-1.277-3.2-2.792L12,16.935a6.039,6.039,0,0,0-1.722,3.307l-.081.02a11.608,11.608,0,0,0-.664-1.039L14.662,13.3c.111.075.915.419,1.109.5Z"/>
        <path class="cls-1" d="M32.563,12.652l-4.531,2.575a7.069,7.069,0,0,0-.863.568l-.049-.049a.668.668,0,0,0,.093-.781c-.448-.856-.94-1.687-2.084-3.7s-1.606-2.859-2.112-3.683a.652.652,0,0,0-.717-.32L22.281,7.2a7.145,7.145,0,0,0,.944-.461,7.252,7.252,0,0,0,.88-.576l.047.049a.651.651,0,0,0-.093.78c.448.858.927,1.7,2.069,3.708s1.76,3.1,2.266,3.922c1.793-.961,3.359-1.909,3.951-3.261l.091.026a9.754,9.754,0,0,0,.127,1.267"/>
        <path class="cls-1" d="M42.9,4.868c-1.405-2.027-1.616-2.381-2.24-3.287-.3,1.061-.467,1.85-1.029,3.836l-.367,1.328L43.679,6ZM47.62,8.956a8.955,8.955,0,0,0-1.161.127,10.644,10.644,0,0,0-1.253.277L45.178,9.3c.181-.132.523-.307.274-.687-.393-.627-.8-1.218-1.526-2.244l-4.763.8c-.321,1.2-.48,1.87-.642,2.607-.113.441.284.493.5.558l0,.069a4.357,4.357,0,0,0-.85.074,5.079,5.079,0,0,0-.842.209l-.028-.063a1.405,1.405,0,0,0,.662-.887c.332-1.036.584-1.855,1.279-4.251.693-2.413,1.227-4.461,1.483-5.45l.2-.033c.551.853,1.757,2.609,3.183,4.666,1.439,2.038,1.859,2.627,2.512,3.5a1.8,1.8,0,0,0,1.016.725Z"/>
        <path class="cls-1" d="M56.49,10.279a4.4,4.4,0,0,1-2.556-1.531l.049-1.468.124-.027a3.446,3.446,0,0,0,2.5,2.611,2.121,2.121,0,0,0,2.681-1.622c.569-2.757-4.618-3.149-4.018-6.05C55.627.48,57.136-.16,58.767.177A3.454,3.454,0,0,1,61,1.438l-.12,1.234-.078.051A2.676,2.676,0,0,0,58.593.6a1.776,1.776,0,0,0-2.287,1.277c-.522,2.527,4.8,2.692,4.06,6.262C60,9.9,58.235,10.64,56.49,10.279"/>
        <path class="cls-1" d="M83.781,14.886c-.68.69-2.017,2.2-3.555,3.926-2.137,2.379-4.362,1.65-5.556.588-1.719-1.527-2.419-3.6-.494-5.763,1.538-1.731,2.988-3.338,3.6-4.082a.65.65,0,0,0,.072-.783l.057-.039a7.23,7.23,0,0,0,.739.747,7.37,7.37,0,0,0,.83.647l-.033.061a.652.652,0,0,0-.769.163c-.666.7-2.1,2.319-3.641,4.049-1.493,1.681-1.339,3.311.193,4.672,1.158,1.029,2.985,1.428,4.711-.513,1.815-2.043,2.864-3.249,3.481-3.994a.651.651,0,0,0,.072-.782l.056-.039a3.1,3.1,0,0,0,.466.5,3.017,3.017,0,0,0,.555.4l-.032.061a.637.637,0,0,0-.756.173"/>
        <path class="cls-1" d="M95.066,34.246c-.909.33-1.829.631-3.976,1.5s-3.914,1.563-4.791,1.97l-.1-.247c2.161-4.3,2.889-5.748,2.889-5.748s.706-1.452,2.535-5.064c-.912.367-1.523.632-3.6,1.489-2.14.883-3.011,1.306-3.895,1.7a.672.672,0,0,0-.413.67l-.067.009a3.577,3.577,0,0,0-.22-.72,3.4,3.4,0,0,0-.335-.654l.055-.041a.655.655,0,0,0,.755.18c.909-.331,1.829-.63,3.976-1.5s2.966-1.2,3.849-1.59a.8.8,0,0,0,.465-.763l.068-.01a3.976,3.976,0,0,0,.238.766l.286.711c-1.662,3.222-2.637,5.214-2.637,5.214s-1,1.983-2.229,4.53c.78-.334,1.33-.573,3.023-1.275,2.141-.883,3.011-1.306,3.895-1.7a.672.672,0,0,0,.413-.668l.067-.01a3.673,3.673,0,0,0,.218.72,3.755,3.755,0,0,0,.343.67l-.055.041a.638.638,0,0,0-.755-.18"/>
        <path class="cls-1" d="M87.709,46.775a7.533,7.533,0,0,0,0-1.052,7.68,7.68,0,0,0-.132-1.043l.065-.02a.649.649,0,0,0,.66.425c.967-.027,1.93-.1,4.239-.247s3.276-.188,4.238-.281a.651.651,0,0,0,.6-.505l.068.011a7.115,7.115,0,0,0,0,1.053,7.237,7.237,0,0,0,.131,1.042l-.065.021a.649.649,0,0,0-.661-.425c-.965.026-1.929.086-4.24.231s-3.274.2-4.236.3a.647.647,0,0,0-.6.5Z"/>
        <path class="cls-1" d="M94.7,62.747c-.836-.7-1.5-1.236-3.463-2.777-1.979-1.544-3.675-2.823-4.5-3.414l.043-.2c1-.2,3.075-.651,5.521-1.22,2.424-.556,3.143-.72,4.178-1a1.735,1.735,0,0,0,1.052-.671l.06.03a9.224,9.224,0,0,0-.316,1.125,10.771,10.771,0,0,0-.212,1.265l-.068,0c-.037-.213-.089-.6-.531-.526-1.034.2-1.992.446-4.429.984l-3.888.846c.876.671,1.543,1.126,3.174,2.389,1.982,1.528,2.768,2.059,3.625,2.659.367.268.58-.078.7-.255l.062.031a4.252,4.252,0,0,0-.248.815,4.925,4.925,0,0,0-.122.859l-.069,0a1.356,1.356,0,0,0-.575-.945"/>
        <path class="cls-1" d="M79.625,72.209l2.982-4.578a7.13,7.13,0,0,0,.507-.9l.066.021a.665.665,0,0,0,.275.736c.792.556,1.61,1.07,3.549,2.334s2.74,1.8,3.569,2.3a.652.652,0,0,0,.784-.045l.047.049a7.055,7.055,0,0,0-.62.83l-2.709,4.158a8.939,8.939,0,0,0-1.167-.343l-.02-.092c1.408-.393,2.359-1.823,3.266-3.4-.972-.674-1.767-1.192-3.512-2.328-1.8,2.786-1.8,3-1.47,3.415l-.05.047a4.082,4.082,0,0,0-.619-.483,3.8,3.8,0,0,0-.692-.372l.008-.073c.546.137.73.038,2.53-2.726l-.013-.008c-1.913-1.245-2.945-1.919-3.773-2.417-1.15,1.675-2.254,3.461-2.16,4.932l-.092.021c-.1-.147-.57-.988-.686-1.084"/>
        <path class="cls-1" d="M79.38,85.645c-.509-.72-1.461-1.965-2.646-3.511-1.088.686-2.341,2.064-1.065,3.731,1.154,1.507,2.679.57,3.711-.22M69.987,80.8c1.812-1.388,4.251,2.073,5.8,1.472a3.571,3.571,0,0,0,.328-.23,3.987,3.987,0,0,0,.334-.277c-1.236-1.612-1.832-2.394-2.416-3.1a.653.653,0,0,0-.741-.228l-.028-.063a6.975,6.975,0,0,0,.86-.576,7.585,7.585,0,0,0,.806-.7l.054.042a.666.666,0,0,0,.015.786c.56.787,1.147,1.554,2.554,3.393s2,2.605,2.607,3.351c.267.321.519.295.7.177l.041.052c-.14.148-1.438,1.162-1.623,1.3-2.156,1.65-3.77,1.46-4.58.4-.971-1.269-.406-2.75.725-3.931-1.779.691-5.2-2.163-5.976-1.067l-.077-.046a1.546,1.546,0,0,1,.612-.761"/>
        <path class="cls-1" d="M60.9,84.812a4.412,4.412,0,0,1,2.978.068l.684,1.3-.1.083A3.442,3.442,0,0,0,61,85.234a2.12,2.12,0,0,0-1.532,2.735c.867,2.676,5.571.454,6.483,3.274.539,1.663-.458,2.964-2.041,3.476a3.45,3.45,0,0,1-2.569.009L60.836,93.6l.042-.085a2.673,2.673,0,0,0,2.973.754,1.777,1.777,0,0,0,1.357-2.241c-.794-2.454-5.5.03-6.624-3.438-.553-1.711.619-3.227,2.314-3.775"/>
        <path class="cls-1" d="M49.991,86.972a7.361,7.361,0,0,0,1.051.007,7.076,7.076,0,0,0,1.044-.126l.02.067a.651.651,0,0,0-.43.656c.022.967.093,1.93.224,4.24s.168,3.275.256,4.238a.645.645,0,0,0,.5.6l-.013.069a7.212,7.212,0,0,0-1.051-.009,7.541,7.541,0,0,0-1.044.126l-.02-.065a.647.647,0,0,0,.43-.657c-.021-.967-.075-1.931-.206-4.241s-.185-3.274-.272-4.236a.653.653,0,0,0-.5-.606Z"/>
        <path class="cls-1" d="M34.9,93.648a5.881,5.881,0,0,0,3.37,1.6l.942-4.412c.484-2.264.684-3.21.855-4.162a.672.672,0,0,0-.325-.716l.03-.061a7.439,7.439,0,0,0,1.013.284,7.186,7.186,0,0,0,1.039.153l0,.069a.669.669,0,0,0-.589.522c-.233.938-.419,1.886-.9,4.15L39.4,95.493a6.061,6.061,0,0,0,3.732-.089l.054.062a11.561,11.561,0,0,0-.588,1.084l-7.672-1.636c.011-.134-.075-1-.1-1.214Z"/>
        <path class="cls-1" d="M25.423,79.357l4.635,2.89a6.948,6.948,0,0,0,.912.49l-.021.065a.667.667,0,0,0-.731.291c-.539.8-1.035,1.629-2.262,3.594s-1.749,2.774-2.232,3.613a.647.647,0,0,0,.061.782l-.05.049a7,7,0,0,0-.84-.6L20.684,87.9A9.037,9.037,0,0,0,21,86.727l.092-.021c.421,1.4,1.867,2.324,3.461,3.2.654-.985,1.155-1.79,2.258-3.557-2.821-1.739-3.039-1.737-3.444-1.4l-.048-.05a4.055,4.055,0,0,0,.471-.63,3.787,3.787,0,0,0,.357-.7l.074.006c-.126.55-.024.731,2.775,2.476l.008-.014c1.207-1.936,1.859-2.982,2.342-3.819-1.7-1.118-3.5-2.185-4.974-2.063l-.022-.09c.145-.108.975-.589,1.069-.708"/>
        <path class="cls-1" d="M18.7,72.219a4.412,4.412,0,0,1,.974,2.817L18.7,76.131l-.111-.061a3.444,3.444,0,0,0-.242-3.609,2.121,2.121,0,0,0-3.1-.481c-2.207,1.745,1.517,5.383-.809,7.221-1.372,1.085-2.939.6-3.972-.7a3.439,3.439,0,0,1-.9-2.405l.885-.869.093.012a2.677,2.677,0,0,0,.331,3.05,1.776,1.776,0,0,0,2.574.49c2.026-1.6-1.946-5.148.914-7.411,1.412-1.113,3.243-.544,4.348.854"/>
        <path class="cls-1" d="M12.893,62.778a7.273,7.273,0,0,0,.36.986,7.4,7.4,0,0,0,.483.934l-.054.042a.649.649,0,0,0-.766-.173c-.9.359-1.776.762-3.894,1.692s-3.01,1.3-3.88,1.721a.652.652,0,0,0-.392.682l-.069.011a7.146,7.146,0,0,0-.359-.987,7.473,7.473,0,0,0-.483-.934l.054-.042a.647.647,0,0,0,.766.173c.9-.358,1.783-.746,3.9-1.676s3-1.319,3.873-1.737a.65.65,0,0,0,.392-.681Z"/>
        <path class="cls-1" d="M100.05,45.323a.73.73,0,0,1-.11-1.031.719.719,0,0,1,1.031-.109.728.728,0,0,1,.11,1.03.741.741,0,0,1-1.031.11"/>
        <path class="cls-1" d="M1.288,69.408a.73.73,0,0,1-.11-1.031.72.72,0,0,1,1.031-.109A.728.728,0,0,1,2.317,69.3a.738.738,0,0,1-1.029.109"/>
        <path class="cls-1" d="M84,11.582,82.106,9.825a1.115,1.115,0,0,0-.65-.376l-.017-.106a5.361,5.361,0,0,0,.922-.576l1.879,1.745a1.263,1.263,0,0,0,.663.389l.015.082a4.318,4.318,0,0,0-.921.6"/>
        <polygon class="cls-2" points="2.812 48.371 1.225 47.43 1.79 49.185 0 49.642 1.642 50.485 0.7 52.073 2.458 51.508 2.914 53.298 3.757 51.654 5.343 52.597 4.781 50.841 6.568 50.384 4.928 49.541 5.868 47.956 4.112 48.517 3.656 46.73 2.812 48.371"/>
        <polygon class="cls-2" points="23.996 64.569 43.6 29.283 70.764 36.905 65.886 45.798 23.996 64.569"/>
        <polygon class="cls-1" points="48.05 77.916 70.847 36.91 61.993 23.564 46.789 23.544 40.686 34.528 48.05 77.916"/>
        <polygon class="cls-3" points="44.251 55.498 39.47 57.645 40.687 34.528 44.251 55.498"/>
        <path class="cls-1" d="M25.543,56.144a2.854,2.854,0,0,0-.23.359,2.806,2.806,0,0,0-.184.384L25.1,56.88a.272.272,0,0,0-.131-.291c-.336-.2-.678-.391-1.5-.849-.749-.416-1.093-.616-1.414-.787.238.333.515.7,1.054,1.421.627.843,1.015,1.338,1.278,1.67l-.069.124c-.421-.05-1.077-.091-2.11-.165-.972-.07-1.309-.1-1.709-.118l-.094,0c.333.178.7.361,1.439.77.819.458,1.17.63,1.519.809a.271.271,0,0,0,.316-.04l.02.019a1.726,1.726,0,0,0-.3.53l-.027-.008a.271.271,0,0,0-.133-.289c-.334-.2-.666-.411-1.486-.867s-1.161-.647-1.508-.826a.262.262,0,0,0-.314.035L19.921,58a2.465,2.465,0,0,0,.165-.24c.049-.089.172-.321.2-.378.424.043,1.146.1,2.179.178,1.012.07.991.066,1.439.108-.269-.365-.354-.461-.864-1.154-.633-.847-1.052-1.381-1.313-1.719.029-.039.121-.188.167-.271a2.34,2.34,0,0,0,.153-.331l.027.008a.261.261,0,0,0,.132.288c.335.2.681.388,1.5.844s1.157.653,1.5.831a.271.271,0,0,0,.317-.039Z"/>
        <path class="cls-1" d="M28.064,51.62a2.783,2.783,0,0,0-.23.359,2.7,2.7,0,0,0-.184.384l-.027-.008a.269.269,0,0,0-.131-.29c-.336-.2-.678-.392-1.5-.849-.748-.416-1.093-.617-1.414-.787.238.333.516.7,1.054,1.42.627.844,1.015,1.338,1.279,1.671l-.07.122c-.421-.048-1.077-.089-2.109-.163-.973-.07-1.31-.1-1.71-.119l-.094,0c.333.179.7.361,1.439.771.819.457,1.171.63,1.519.808a.271.271,0,0,0,.316-.04l.02.019a1.467,1.467,0,0,0-.171.252,1.488,1.488,0,0,0-.124.278l-.027-.006a.269.269,0,0,0-.132-.29c-.335-.2-.667-.411-1.486-.867s-1.161-.648-1.509-.826a.262.262,0,0,0-.314.034l-.02-.019a2.1,2.1,0,0,0,.165-.24c.049-.088.172-.322.2-.377.424.043,1.146.1,2.179.178,1.012.07.991.065,1.439.107-.268-.365-.354-.46-.863-1.153-.634-.847-1.053-1.382-1.313-1.72.028-.038.12-.188.166-.27a2.434,2.434,0,0,0,.154-.332l.026.008a.267.267,0,0,0,.133.29c.334.2.68.386,1.5.843s1.158.653,1.506.831a.271.271,0,0,0,.316-.04Z"/>
        <path class="cls-1" d="M30.057,48.043a4.158,4.158,0,0,0-.264.417,5.049,5.049,0,0,0-.242.491l-.027-.008c.008-.1.06-.245-.131-.235-.432.014-.666.03-1.4.11-.269.026-.288.032-.413.048a.774.774,0,0,0-.154.014l.137.293.192.392c.2.437.292.626.538,1.072.091.167.208.054.283,0l.02.019a1.728,1.728,0,0,0-.185.277,2.274,2.274,0,0,0-.154.331l-.026-.008a.908.908,0,0,0-.1-.478c-.175-.407-.241-.536-.554-1.221l-.315-.669-.68.069c-.735.085-.991.1-1.268.142a1.018,1.018,0,0,0-.506.174l-.018-.025a4.141,4.141,0,0,0,.274-.434,4.382,4.382,0,0,0,.232-.473l.027.007c-.013.093-.056.239.131.236.433-.015.666-.031,1.4-.11l.206-.024-.09-.183c-.259-.56-.342-.731-.621-1.241-.092-.167-.215-.058-.287,0l-.018-.025a1.618,1.618,0,0,0,.182-.269,2.506,2.506,0,0,0,.157-.338l.026.008a.9.9,0,0,0,.1.478c.175.406.244.545.561,1.223l.148.33.15-.018.9-.091c.731-.08.982-.1,1.265-.138a1.069,1.069,0,0,0,.506-.172Z"/>
        <path class="cls-1" d="M28.476,43.34c.244.368.44.654,1.021,1.48s1.1,1.524,1.349,1.848l-.04.071c-.411-.037-1.269-.1-2.283-.168s-1.3-.086-1.74-.1a.7.7,0,0,0-.486.139l-.02-.019a3.831,3.831,0,0,0,.254-.4,4.439,4.439,0,0,0,.229-.466l.027.007c-.01.087-.036.243.145.267.424.043.824.057,1.833.132l1.607.123c-.262-.362-.468-.615-.954-1.295-.591-.824-.835-1.121-1.1-1.454-.112-.147-.235-.037-.3.017L28,43.506a1.732,1.732,0,0,0,.19-.288,1.787,1.787,0,0,0,.147-.32l.027.008a.554.554,0,0,0,.114.434"/>
        <path class="cls-1" d="M32.348,43.931a2.745,2.745,0,0,0-.23.359,3.061,3.061,0,0,0-.184.384l-.026-.008a.265.265,0,0,0-.132-.29c-.335-.2-.681-.386-1.5-.842s-1.157-.653-1.506-.832a.265.265,0,0,0-.316.04l-.02-.018a2.859,2.859,0,0,0,.231-.359,3.2,3.2,0,0,0,.183-.384l.026.007a.265.265,0,0,0,.133.29c.335.2.677.392,1.5.849s1.161.647,1.509.825a.263.263,0,0,0,.316-.039Z"/>
        <path class="cls-1" d="M33.149,42.493a2.8,2.8,0,0,0-.23.358,3.142,3.142,0,0,0-.184.385l-.026-.008a.264.264,0,0,0-.132-.29c-.335-.2-.681-.386-1.5-.842s-1.157-.653-1.506-.832a.265.265,0,0,0-.316.04l-.02-.019a2.734,2.734,0,0,0,.23-.358,2.928,2.928,0,0,0,.184-.384l.026.007a.265.265,0,0,0,.132.29c.336.2.678.392,1.5.848s1.16.648,1.509.826a.26.26,0,0,0,.315-.04Z"/>
        <path class="cls-1" d="M33.95,41.056a3.4,3.4,0,0,0-.414.743l-.026-.008a.265.265,0,0,0-.132-.29c-.336-.2-.681-.386-1.5-.842s-1.157-.653-1.506-.832a.263.263,0,0,0-.315.04l-.021-.019a2.847,2.847,0,0,0,.231-.358,3.053,3.053,0,0,0,.183-.384l.026.007a.264.264,0,0,0,.133.289c.334.2.677.393,1.5.849s1.161.648,1.509.826a.261.261,0,0,0,.316-.04Z"/>
        <path class="cls-1" d="M34.495,40.147a.3.3,0,0,1-.4.116.291.291,0,0,1-.114-.405.3.3,0,0,1,.4-.115.3.3,0,0,1,.115.4"/>
        <path class="cls-1" d="M51.3,100.26a.728.728,0,0,1-.109-1.031.719.719,0,0,1,1.03-.11.73.73,0,0,1,.11,1.031.741.741,0,0,1-1.031.11"/>
      </g>
    </g>
  </g>
</svg>
