<?xml version="1.0" encoding="UTF-8" standalone="no"?>
<!-- Created with Inkscape (http://www.inkscape.org/) -->

<svg
   xmlns:dc="http://purl.org/dc/elements/1.1/"
   xmlns:cc="http://creativecommons.org/ns#"
   xmlns:rdf="http://www.w3.org/1999/02/22-rdf-syntax-ns#"
   xmlns:svg="http://www.w3.org/2000/svg"
   xmlns="http://www.w3.org/2000/svg"
   xmlns:sodipodi="http://sodipodi.sourceforge.net/DTD/sodipodi-0.dtd"
   xmlns:inkscape="http://www.inkscape.org/namespaces/inkscape"
   width="441.99023"
   height="158.20441"
   viewBox="0 0 116.94325 41.858249"
   version="1.1"
   id="svg8"
   inkscape:version="0.92.3 (2405546, 2018-03-11)"
   sodipodi:docname="hori.svg">
  <defs
     id="defs2" />
  <sodipodi:namedview
     id="base"
     pagecolor="#00ffff"
     bordercolor="#666666"
     borderopacity="1.0"
     inkscape:pageopacity="0"
     inkscape:pageshadow="2"
     inkscape:zoom="2.8"
     inkscape:cx="216.76881"
     inkscape:cy="36.172238"
     inkscape:document-units="px"
     inkscape:current-layer="layer1"
     showgrid="false"
     units="px"
     fit-margin-top="0.5"
     fit-margin-left="0.5"
     fit-margin-right="0.5"
     fit-margin-bottom="0.5"
     inkscape:window-width="1920"
     inkscape:window-height="1001"
     inkscape:window-x="-9"
     inkscape:window-y="-9"
     inkscape:window-maximized="1" />
  <metadata
     id="metadata5">
    <rdf:RDF>
      <cc:Work
         rdf:about="">
        <dc:format>image/svg+xml</dc:format>
        <dc:type
           rdf:resource="http://purl.org/dc/dcmitype/StillImage" />
        <dc:title></dc:title>
      </cc:Work>
    </rdf:RDF>
  </metadata>
  <g
     inkscape:label="Layer 1"
     inkscape:groupmode="layer"
     id="layer1"
     transform="translate(41.120079,-98.692017)">
    <g
       id="surface199626"
       transform="matrix(0.35277776,0,0,0.35277776,-56.534634,55.740979)">
      <path
         id="path147"
         d="m 45.355469,184.14062 c -1.707031,-1.6914 -1.714844,-4.4375 -0.01953,-6.1289 l 54.714841,-54.61719 c 1.69531,-1.6914 4.45313,-1.6914 6.16016,0 l 55.05468,54.61719 c 1.70704,1.6914 1.71485,4.4375 0.0195,6.1289 l -54.71875,54.61719 c -1.69532,1.69531 -4.44922,1.69531 -6.15625,0 z m 0,0"
         style="fill:#ffffff;fill-opacity:1;fill-rule:evenodd;stroke:none"
         inkscape:connector-curvature="0" />
      <path
         id="path149"
         d="m 70.023438,205.48437 h 66.609372 l -30.36718,30.30469 c -1.60938,1.60938 -4.21875,1.60938 -5.83204,0 z m 0,0"
         style="fill:#00abee;fill-opacity:1;fill-rule:nonzero;stroke:none"
         inkscape:connector-curvature="0" />
      <path
         id="path151"
         d="m 48.441406,183.98047 c -1.609375,-1.60156 -1.613281,-4.20703 -0.0039,-5.8086 l 3.828125,-3.82031 17.757813,31.125 z m 3.859375,-9.66406 13.71875,-13.6875 12.335938,37.86718 z m 13.753907,-13.72657 15.910156,-15.875 6.023437,49.51172 z m 58.601562,-15.82031 15.90234,15.84375 -21.92187,33.61328 z m 15.94141,15.88672 13.71093,13.66016 -26.03515,24.17968 z m 13.7539,13.69922 3.82422,3.8164 c 1.61328,1.60157 1.61328,4.20704 0.008,5.8086 L 136.633,205.48437 Z M 81.996094,144.68359 100.35547,126.36328 c 0.80469,-0.80469 1.86328,-1.20703 2.91797,-1.20312 l -5.203127,67.15625 z m 21.359376,-19.52343 c 1.02734,0.0195 2.04687,0.42187 2.82812,1.20312 l 18.42969,18.36328 -16.05859,47.58985 z m 0,0"
         style="fill:#1e54ae;fill-opacity:1;fill-rule:nonzero;stroke:none"
         inkscape:connector-curvature="0" />
      <path
         id="path153"
         d="m 214.63281,191.43359 c 0,10.59766 -7.76172,13.04688 -12.35547,13.04688 -2.34765,0 -4.69922,-0.10156 -7.45312,-1.22266 -3.26953,-1.32422 -3.57813,-3.05469 -3.57813,-9.78515 v -24.15235 c 0,-0.50781 0.20703,-0.71094 0.61328,-0.71094 1.53125,0 2.55469,0 4.39063,0.10157 3.98437,0.20312 6.33594,0.91797 8.48047,2.44531 7.76172,5.39844 9.90234,13.96094 9.90234,20.27734 m -23.38672,-53.60156 c 0,-1.12109 0.20703,-1.52734 0.92188,-1.73437 1.01953,-0.20313 1.9375,-0.20313 3.37109,-0.20313 8.78125,0 12.76563,8.96875 12.76563,15.79688 0,4.99609 -1.53516,8.66406 -4.1875,10.80468 -1.73828,1.52735 -3.98438,1.9336 -7.35547,1.9336 -2.34766,0 -3.87891,-0.0977 -4.79688,-0.30469 -0.41015,-0.10156 -0.71875,-0.30859 -0.71875,-1.12109 z m -12.2539,41.375 c 0,9.375 0,17.42578 -0.50782,21.70703 -0.41015,2.95703 -0.92187,5.19531 -2.96093,5.60547 -0.92188,0.20313 -2.14844,0.40625 -3.67969,0.40625 -1.22266,0 -1.63281,0.30469 -1.63281,0.8125 0,0.71875 0.71484,1.02344 2.04297,1.02344 2.04296,0 4.69531,-0.20313 7.04687,-0.20313 2.44922,-0.10156 4.69531,-0.10156 5.82031,-0.10156 1.53125,0 4.59766,0.10156 7.66016,0.30469 2.96094,0.0977 5.92187,0.30469 7.14844,0.30469 18.78906,0 27.26562,-11.3125 27.26562,-22.21875 0,-11.92188 -10.21094,-19.15625 -18.58594,-22.00782 5.61719,-4.48437 10.41797,-9.48047 10.41797,-17.83593 0,-5.40235 -3.26953,-15.28516 -21.7539,-15.28516 -3.47266,0 -7.45313,0.30469 -12.46094,0.30469 -2.03906,0 -8.47266,-0.30469 -13.88672,-0.30469 -1.53125,0 -2.24609,0.20312 -2.24609,0.91797 0,0.71094 0.61328,0.91406 1.73437,0.91406 1.42969,0 3.16797,0.10547 3.98438,0.30859 3.36718,0.71094 4.1875,2.34375 4.39062,5.8086 0.20313,3.25781 0.20313,6.11328 0.20313,21.60156 z m 0,0"
         style="fill:#1e54ae;fill-opacity:1;fill-rule:evenodd;stroke:none"
         inkscape:connector-curvature="0" />
      <path
         id="path155"
         d="m 253.25,177.06641 c -0.40625,0 -0.51172,-0.30469 -0.40625,-0.71485 l 9.39453,-25.0664 c 0.10156,-0.40625 0.30469,-0.91797 0.61328,-0.91797 0.30469,0 0.41016,0.51172 0.50781,0.91797 l 9.19141,25.17187 c 0.10156,0.30469 0,0.60938 -0.50781,0.60938 z m 20.73047,5.09765 c 0.51172,0 0.82031,0.20313 1.02344,0.71094 l 8.16796,21.60547 c 0.51172,1.22265 -0.20312,2.13672 -0.91796,2.34375 -1.02344,0.10156 -1.42969,0.30469 -1.42969,0.91406 0,0.71875 1.22656,0.71875 3.0664,0.82031 8.16797,0.20313 15.625,0.20313 19.29688,0.20313 3.78125,0 4.69922,-0.20313 4.69922,-1.02344 0,-0.71094 -0.51172,-0.8125 -1.32813,-0.8125 -1.22656,0 -2.75781,-0.10156 -4.28906,-0.40625 -2.14453,-0.61328 -5.10547,-2.03125 -8.98828,-11.16406 -6.53516,-15.4336 -22.875,-57.01563 -25.32813,-62.61719 -1.01562,-2.34375 -1.63281,-3.26172 -2.55078,-3.26172 -1.01953,0 -1.63281,1.1211 -2.85937,4.07422 l -25.63281,64 c -2.04297,5.09375 -3.98047,8.55859 -8.67969,9.17188 -0.82031,0.10156 -2.2461,0.20312 -3.16797,0.20312 -0.81641,0 -1.22266,0.20313 -1.22266,0.8125 0,0.82031 0.60938,1.02344 1.9375,1.02344 5.3125,0 10.92578,-0.30469 12.05078,-0.30469 3.16797,0 7.5586,0.30469 10.82422,0.30469 1.125,0 1.73828,-0.20313 1.73828,-1.02344 0,-0.60937 -0.30468,-0.8125 -1.53125,-0.8125 h -1.53515 c -3.16406,0 -4.08203,-1.32422 -4.08203,-3.16016 0,-1.21875 0.51172,-3.66796 1.53125,-6.21484 l 5.51562,-14.57422 c 0.20313,-0.60937 0.40625,-0.8125 0.91797,-0.8125 z m 0,0"
         style="fill:#1e54ae;fill-opacity:1;fill-rule:evenodd;stroke:none"
         inkscape:connector-curvature="0" />
      <path
         id="path157"
         d="m 303.33203,176.14844 c 0,14.77734 3.87891,22.3164 9.08594,27.0039 7.45703,6.73047 17.25781,7.03516 22.67187,7.03516 6.63672,0 13.99219,-1.12109 21.24219,-7.33984 8.57422,-7.33594 9.69922,-19.35938 9.69922,-30.67188 v -10.90625 c 0,-15.48828 0,-18.34375 0.20312,-21.60156 0.20704,-3.57031 1.02344,-5.30078 3.78125,-5.8086 1.22266,-0.20312 1.83985,-0.30859 2.96094,-0.30859 1.22656,0 1.83594,-0.20312 1.83594,-0.91406 0,-0.71485 -0.71094,-0.91797 -2.14063,-0.91797 -3.98437,0 -10.41796,0.30469 -11.64453,0.30469 -0.10156,0 -6.53515,-0.30469 -11.74609,-0.30469 -1.42578,0 -2.14063,0.20312 -2.14063,0.91797 0,0.71094 0.61329,0.91406 1.73438,0.91406 1.125,0 2.85937,0.10547 3.67578,0.30859 3.37109,0.71094 4.1875,2.34375 4.39063,5.8086 0.20312,3.25781 0.20312,6.11328 0.20312,21.60156 v 12.73828 c 0,10.4961 -0.30078,19.66797 -5.91797,25.27344 -4.08594,4.07812 -9.60156,5.50391 -14.09375,5.50391 -3.47656,0 -8.17187,-0.40625 -12.76953,-4.17969 -5,-4.07422 -7.96484,-10.28906 -7.96484,-25.06641 v -14.26953 c 0,-15.48828 0,-18.34375 0.20703,-21.60156 0.20312,-3.57031 1.01953,-5.30078 3.77734,-5.8086 1.22656,-0.20312 1.83985,-0.30859 2.96485,-0.30859 1.01562,0 1.6289,-0.20312 1.6289,-0.91406 0,-0.71485 -0.71094,-0.91797 -2.24609,-0.91797 -3.67578,0 -10.10547,0.30469 -12.5586,0.30469 -3.0664,0 -9.49609,-0.30469 -14.91015,-0.30469 -1.53516,0 -2.2461,0.20312 -2.2461,0.91797 0,0.71094 0.61329,0.91406 1.73438,0.91406 1.42969,0 3.16797,0.10547 3.98437,0.30859 3.36719,0.71094 4.1875,2.34375 4.39063,5.8086 0.20703,3.25781 0.20703,6.11328 0.20703,21.60156 z m 0,0"
         style="fill:#1e54ae;fill-opacity:1;fill-rule:evenodd;stroke:none"
         inkscape:connector-curvature="0" />
      <path
         id="path159"
         d="m 234.5625,235.09766 c 0.88672,0 1.50391,0.6875 1.50391,1.51953 0,0.79687 -0.59766,1.5039 -1.52344,1.5039 -0.91406,0 -1.5,-0.71093 -1.5,-1.5039 0,-0.83594 0.61719,-1.51953 1.51953,-1.51953"
         style="fill:#1e54ae;fill-opacity:1;fill-rule:evenodd;stroke:none"
         inkscape:connector-curvature="0" />
      <path
         id="path161"
         d="m 215.92969,235.09766 c 0.89062,0 1.5039,0.6875 1.5039,1.51953 0,0.79687 -0.59765,1.5039 -1.52343,1.5039 -0.91407,0 -1.5,-0.71093 -1.5,-1.5039 0,-0.83594 0.61718,-1.51953 1.51953,-1.51953"
         style="fill:#1e54ae;fill-opacity:1;fill-rule:evenodd;stroke:none"
         inkscape:connector-curvature="0" />
      <path
         id="path163"
         d="m 202.02734,224.95312 c 0.28516,-0.33203 0.63282,-0.62109 1.03125,-0.83203 0.60547,-0.37109 1.32813,-0.58203 2.08985,-0.58203 1.52734,0 3.92968,0.96094 3.92968,4.75781 v 6.51172 h -2.41796 v -6.3164 c 0,-1.65625 -0.59766,-2.86328 -2.1836,-2.86328 -1.11719,0 -1.99609,0.78906 -2.33594,1.7539 -0.0898,0.21485 -0.11328,0.46094 -0.11328,0.82422 v 6.60156 h -2.41797 v -15.94922 h 2.41797 z m 0,0"
         style="fill:#1e54ae;fill-opacity:1;fill-rule:evenodd;stroke:none"
         inkscape:connector-curvature="0" />
      <path
         id="path165"
         d="m 184.85156,226.66016 c 1.3125,0.5 2.64453,1.6914 2.64453,3.72265 0,1.33985 -0.53515,2.35938 -1.34375,3.1211 -1.07031,1.0039 -2.80859,1.4375 -5.21875,1.4375 -1.07422,0 -2.1289,-0.0586 -3.1875,-0.20704 v -14.82031 c 1.20313,-0.28515 2.47657,-0.3789 3.71094,-0.3789 1.91016,0 3.19531,0.32812 4.15234,1.11328 0.82422,0.61718 1.33985,1.5625 1.33985,2.79297 0,1.37109 -0.80469,2.5625 -2.09766,3.21875 m -3.28515,-5.16407 c -0.6875,0 -1.13282,0.0391 -1.42579,0.0859 v 4.28516 h 1.46875 c 1.89063,0 2.90235,-0.9961 2.90235,-2.23047 0,-1.48047 -1.07813,-2.14063 -2.94531,-2.14063 m -0.10938,6.28907 h -1.31641 v 5.125 c 0.35157,0.0391 0.79297,0.0547 1.33594,0.0547 1.9336,0 3.51563,-0.69922 3.51563,-2.60547 0,-1.75781 -1.50782,-2.57421 -3.53516,-2.57421"
         style="fill:#1e54ae;fill-opacity:1;fill-rule:evenodd;stroke:none"
         inkscape:connector-curvature="0" />
      <path
         id="path167"
         d="m 195.04687,233.77344 c -0.67187,0.71875 -1.76171,1.27734 -3.10546,1.27734 -2.28125,0 -3.46875,-1.625 -3.46875,-3.27344 0,-2.72656 2.39453,-4.13281 6.33203,-4.16797 -0.008,-0.84375 -0.24219,-2.17187 -2.14453,-2.15625 -1.11719,0 -1.98047,0.30469 -2.89454,0.92579 l -0.60546,-1.78516 c 1.14843,-0.71484 2.42968,-1.05469 3.78515,-1.05469 3.44531,0 4.27344,2.38281 4.27344,4.5586 v 3.9414 c 0,0.9375 0.0547,1.84375 0.19531,2.77344 h -2.23047 z m -0.27343,-2.23047 c 0.0547,-0.16016 0.0742,-0.34766 0.0742,-0.53125 v -1.57813 c -2.07422,-0.0117 -3.96094,0.4336 -3.96094,2.125 0,1.10547 0.69531,1.57813 1.53515,1.57813 1.27344,0 2.07813,-0.79297 2.35157,-1.59375"
         style="fill:#1e54ae;fill-opacity:1;fill-rule:evenodd;stroke:none"
         inkscape:connector-curvature="0" />
      <path
         id="path169"
         d="m 216.59375,232.98437 c 1.02734,0 1.62891,-0.20703 2.52734,-0.60156 l 0.4375,1.92578 c -1.03906,0.4961 -2.15234,0.72266 -3.3125,0.72266 -3.32422,0 -5.49609,-2.27734 -5.49609,-5.625 0,-3.37891 2.32812,-5.86719 5.91016,-5.86719 1.02734,0 2.04687,0.20313 2.95312,0.69531 l -0.58203,1.94141 c -0.81641,-0.42578 -1.41016,-0.61328 -2.37109,-0.61328 -2.2461,0 -3.47266,1.66016 -3.47266,3.73437 0,2.3086 1.46484,3.6875 3.40625,3.6875"
         style="fill:#1e54ae;fill-opacity:1;fill-rule:evenodd;stroke:none"
         inkscape:connector-curvature="0" />
      <path
         id="path171"
         d="m 234.17187,235.03125 c -1.1875,0 -2.24218,-0.27734 -3.25781,-0.875 l 0.61328,-1.92969 c 0.82032,0.48828 1.71094,0.86328 2.6875,0.86328 1.27735,0 1.77344,-0.59765 1.77344,-1.3125 0,-0.74218 -0.39062,-1.16406 -1.76953,-1.68359 -1.96094,-0.71094 -2.97266,-1.82031 -2.97266,-3.21484 0,-1.86329 1.53125,-3.33985 3.88282,-3.33985 1.04687,0 1.99218,0.22656 2.86718,0.80078 l -0.61328,1.84375 c -0.7539,-0.43359 -1.38281,-0.73047 -2.29687,-0.73047 -1.02344,0 -1.48828,0.57032 -1.48828,1.1875 0,0.6836 0.42187,1.01954 1.8164,1.57422 1.84766,0.6875 2.92578,1.66797 2.92578,3.38672 0,2.05078 -1.61328,3.42969 -4.16797,3.42969"
         style="fill:#1e54ae;fill-opacity:1;fill-rule:evenodd;stroke:none"
         inkscape:connector-curvature="0" />
      <path
         id="path173"
         d="m 229.98437,228.75 c 0,0.39844 -0.0312,0.75781 -0.10937,1.14453 h -7.32422 c 0.14063,2.22656 1.59766,3.13281 3.33203,3.13281 1.25,0 1.98438,-0.15625 3.08594,-0.64062 l 0.47266,1.85937 c -1.25,0.5625 -2.42969,0.78125 -3.82032,0.78125 -3.36718,0 -5.42968,-2.27343 -5.42968,-5.55859 0,-3.27344 1.96875,-5.92969 5.21484,-5.92969 3.66016,0 4.57812,3.24219 4.57812,5.21094 m -4.73046,-3.33984 c -1.63282,0 -2.42579,1.3789 -2.64844,2.60937 h 5.02734 c -0.0469,-1.16016 -0.60547,-2.60937 -2.3789,-2.60937"
         style="fill:#1e54ae;fill-opacity:1;fill-rule:evenodd;stroke:none"
         inkscape:connector-curvature="0" />
      <path
         id="path175"
         d="m 253.26172,224.95312 c 0.28515,-0.33203 0.63672,-0.62109 1.03515,-0.83203 0.60547,-0.37109 1.32422,-0.58203 2.08985,-0.58203 1.52734,0 3.92969,0.96094 3.92969,4.75781 v 6.51172 h -2.41797 v -6.3164 c 0,-1.65625 -0.59766,-2.86328 -2.1875,-2.86328 -1.11328,0 -1.99219,0.78906 -2.33594,1.7539 -0.0859,0.21485 -0.11328,0.46094 -0.11328,0.82422 v 6.60156 h -2.41406 v -15.94922 h 2.41406 z m 0,0"
         style="fill:#1e54ae;fill-opacity:1;fill-rule:evenodd;stroke:none"
         inkscape:connector-curvature="0" />
      <path
         id="path177"
         d="M 265.16406,234.8125 H 262.75 v -11.03125 h 2.41406 z m 0,0"
         style="fill:#1e54ae;fill-opacity:1;fill-rule:evenodd;stroke:none"
         inkscape:connector-curvature="0" />
      <path
         id="path179"
         d="m 249.15234,228.75 c 0,0.39844 -0.0312,0.75781 -0.10937,1.14453 h -7.32422 c 0.14062,2.22656 1.59766,3.13281 3.33203,3.13281 1.25,0 1.98438,-0.15625 3.08594,-0.64062 l 0.47265,1.85937 c -1.25,0.5625 -2.42968,0.78125 -3.82031,0.78125 -3.36719,0 -5.42969,-2.27343 -5.42969,-5.55859 0,-3.27344 1.96485,-5.92969 5.21094,-5.92969 3.66406,0 4.58203,3.24219 4.58203,5.21094 m -4.73047,-3.33984 c -1.63281,0 -2.42578,1.3789 -2.65234,2.60937 h 5.03125 c -0.0508,-1.16016 -0.60937,-2.60937 -2.37891,-2.60937"
         style="fill:#1e54ae;fill-opacity:1;fill-rule:evenodd;stroke:none"
         inkscape:connector-curvature="0" />
      <path
         id="path181"
         d="m 265.38281,221.08984 c 0,0.76172 -0.58203,1.42578 -1.46875,1.42578 -0.84765,0 -1.40234,-0.67187 -1.40234,-1.42578 0,-0.80468 0.58594,-1.44531 1.44531,-1.44531 0.84375,0 1.42578,0.64063 1.42578,1.44531"
         style="fill:#1e54ae;fill-opacity:1;fill-rule:evenodd;stroke:none"
         inkscape:connector-curvature="0" />
      <path
         id="path183"
         d="m 269.80078,225.19531 c 0.62891,-1.02734 1.66406,-1.65625 2.79297,-1.65625 0.26172,0 0.51562,0.043 0.77344,0.0742 v 2.30469 c -0.30078,-0.0352 -0.59766,-0.0742 -0.90625,-0.0742 -1.19141,0 -2.07032,0.89844 -2.31641,2.23047 -0.043,0.26953 -0.0664,0.55859 -0.0664,0.85156 v 5.88672 h -2.41406 v -7.49609 c 0,-1.1836 -0.0234,-2.35547 -0.10156,-3.53516 h 2.17969 z m 0,0"
         style="fill:#1e54ae;fill-opacity:1;fill-rule:evenodd;stroke:none"
         inkscape:connector-curvature="0" />
      <path
         id="path185"
         d="m 283.03906,228.35156 v -8.89062 h 2.41406 v 8.95703 c 0,3.17969 1.39844,4.40625 3.16797,4.40625 1.97266,0 3.32032,-1.27735 3.32032,-4.40625 v -8.95703 h 2.41406 v 8.82812 c 0,4.63281 -2.47656,6.58203 -5.79688,6.58203 -3.15625,0 -5.51953,-1.82422 -5.51953,-6.51953"
         style="fill:#1e54ae;fill-opacity:1;fill-rule:evenodd;stroke:none"
         inkscape:connector-curvature="0" />
      <path
         id="path187"
         d="m 365.98828,231.41797 c 0.13672,-0.46875 0.28516,-0.98047 0.45703,-1.47266 l 2.14453,-6.34765 h 2.57032 l -3.00391,7.84375 c -1.37109,3.60937 -2.32422,5.49609 -3.68359,6.69921 -0.8125,0.67969 -1.66016,1.125 -2.6875,1.3125 l -0.61329,-2.03515 c 0.69141,-0.22266 1.25782,-0.48828 1.82813,-0.96875 0.48828,-0.38672 1.09766,-1.09375 1.53906,-2.04297 0.0312,-0.0664 0.12891,-0.27344 0.12891,-0.35156 0,-0.0508 -0.0274,-0.16797 -0.13281,-0.40235 l -4.01172,-10.05468 h 2.63281 l 2.34766,6.38671 c 0.16796,0.45313 0.33593,0.96094 0.48437,1.4336"
         style="fill:#1e54ae;fill-opacity:1;fill-rule:evenodd;stroke:none"
         inkscape:connector-curvature="0" />
      <path
         id="path189"
         d="m 355.24609,223.59766 v -1.8711 l 2.3711,-0.74219 v 2.61329 h 2.74609 v 1.95703 h -2.74609 v 5.40625 c 0,1.28125 0.35156,1.80078 1.1914,1.80078 0.57813,0 0.8125,-0.0547 1.33594,-0.21485 l 0.12109,1.96485 c -0.66406,0.23047 -1.24609,0.33594 -1.96093,0.33594 -0.94922,0 -1.74219,-0.32422 -2.25,-0.88672 -0.58594,-0.66016 -0.8086,-1.67578 -0.8086,-2.92969 v -5.47656 h -1.63281 v -1.95703 z m 0,0"
         style="fill:#1e54ae;fill-opacity:1;fill-rule:evenodd;stroke:none"
         inkscape:connector-curvature="0" />
      <path
         id="path191"
         d="m 352.53125,220.91016 c 0,0.76171 -0.58203,1.42578 -1.47266,1.42578 -0.84765,0 -1.39843,-0.67188 -1.39843,-1.42578 0,-0.8086 0.58203,-1.44532 1.44531,-1.44532 0.84375,0 1.42578,0.64063 1.42578,1.44532"
         style="fill:#1e54ae;fill-opacity:1;fill-rule:evenodd;stroke:none"
         inkscape:connector-curvature="0" />
      <path
         id="path193"
         d="m 352.3125,234.63281 h -2.41406 v -11.03515 h 2.41406 z m 0,0"
         style="fill:#1e54ae;fill-opacity:1;fill-rule:evenodd;stroke:none"
         inkscape:connector-curvature="0" />
      <path
         id="path195"
         d="m 343.94922,234.84766 c -1.1875,0 -2.24219,-0.27735 -3.26172,-0.875 l 0.61328,-1.92579 c 0.82031,0.48438 1.71094,0.86329 2.69141,0.86329 1.27343,0 1.77343,-0.60157 1.77343,-1.31641 0,-0.73828 -0.39453,-1.16016 -1.77343,-1.67969 -1.95703,-0.71094 -2.97266,-1.82031 -2.97266,-3.21484 0,-1.86328 1.53125,-3.33985 3.88672,-3.33985 1.04297,0 1.99219,0.22657 2.86328,0.80079 L 347.15625,226 c -0.75,-0.43359 -1.38281,-0.72656 -2.29688,-0.72656 -1.01953,0 -1.48828,0.5664 -1.48828,1.18359 0,0.68359 0.42578,1.02344 1.82032,1.57422 1.84765,0.69141 2.92578,1.67187 2.92578,3.38672 0,2.05469 -1.61719,3.42969 -4.16797,3.42969"
         style="fill:#1e54ae;fill-opacity:1;fill-rule:evenodd;stroke:none"
         inkscape:connector-curvature="0" />
      <path
         id="path197"
         d="m 336.65625,225.01172 c 0.625,-1.02344 1.66016,-1.65235 2.78906,-1.65235 0.26172,0 0.51563,0.0391 0.77344,0.0742 v 2.30469 c -0.30078,-0.0352 -0.60156,-0.0742 -0.90625,-0.0742 -1.19141,0 -2.07422,0.89844 -2.31641,2.23047 -0.043,0.26953 -0.0664,0.55859 -0.0664,0.84766 v 5.89062 h -2.41407 v -7.5 c 0,-1.18359 -0.0234,-2.35156 -0.10156,-3.53515 h 2.17969 z m 0,0"
         style="fill:#1e54ae;fill-opacity:1;fill-rule:evenodd;stroke:none"
         inkscape:connector-curvature="0" />
      <path
         id="path199"
         d="m 317.66406,231.66016 c 0.19922,-0.63672 0.42969,-1.28907 0.67969,-1.9961 l 2.10156,-6.0664 h 2.54688 l -4.32813,11.03515 h -2.17187 l -4.19141,-11.03515 h 2.58594 l 2.125,6.0664 c 0.2539,0.70703 0.46875,1.35938 0.65234,1.9961"
         style="fill:#1e54ae;fill-opacity:1;fill-rule:evenodd;stroke:none"
         inkscape:connector-curvature="0" />
      <path
         id="path201"
         d="m 311.43359,220.91016 c 0,0.76171 -0.58203,1.42578 -1.46875,1.42578 -0.84765,0 -1.40234,-0.67188 -1.40234,-1.42578 0,-0.8086 0.58594,-1.44532 1.44531,-1.44532 0.84375,0 1.42578,0.64063 1.42578,1.44532"
         style="fill:#1e54ae;fill-opacity:1;fill-rule:evenodd;stroke:none"
         inkscape:connector-curvature="0" />
      <path
         id="path203"
         d="m 328.08984,225.23047 c -1.63672,0 -2.42578,1.3789 -2.64843,2.60937 h 5.02734 c -0.0508,-1.16015 -0.60547,-2.60937 -2.37891,-2.60937 m 4.73047,3.33984 c 0,0.39453 -0.0312,0.75781 -0.10937,1.14063 h -7.32032 c 0.13672,2.22656 1.59375,3.13281 3.32813,3.13281 1.25,0 1.98437,-0.15625 3.08594,-0.63672 l 0.47265,1.85938 c -1.25,0.5625 -2.42578,0.78125 -3.82031,0.78125 -3.36719,0 -5.42969,-2.27735 -5.42969,-5.5586 0,-3.27344 1.96485,-5.92969 5.21094,-5.92969 3.66406,0 4.58203,3.24219 4.58203,5.21094"
         style="fill:#1e54ae;fill-opacity:1;fill-rule:evenodd;stroke:none"
         inkscape:connector-curvature="0" />
      <path
         id="path205"
         d="m 311.21875,234.63281 h -2.41797 v -11.03515 h 2.41797 z m 0,0"
         style="fill:#1e54ae;fill-opacity:1;fill-rule:evenodd;stroke:none"
         inkscape:connector-curvature="0" />
      <path
         id="path207"
         d="m 299.07812,224.875 c 0.67188,-0.82422 1.8125,-1.51953 3.31641,-1.51953 1.57031,0 3.96875,0.95703 3.96875,4.73828 v 6.53906 h -2.41016 v -6.32422 c 0,-1.66015 -0.60546,-2.88281 -2.1875,-2.88281 -1.11718,0 -2.01171,0.80469 -2.33593,1.78906 -0.0703,0.20313 -0.11719,0.51953 -0.11719,0.8086 v 6.60937 h -2.41406 v -7.93359 c 0,-1.04297 -0.0274,-2.0625 -0.10547,-3.10156 h 2.20312 z m 0,0"
         style="fill:#1e54ae;fill-opacity:1;fill-rule:evenodd;stroke:none"
         inkscape:connector-curvature="0" />
    </g>
  </g>
</svg>
