<?xml version="1.0" encoding="UTF-8"?><svg id="Layer_2" xmlns="http://www.w3.org/2000/svg" viewBox="0 0 116.99 139.5"><defs><style>.cls-1{fill:#f2f2f2;}.cls-2{fill:#001bc3;}.cls-3{fill:#fff;}</style></defs><g id="Layer_1-2"><g><g><g><path class="cls-2" d="M58.46,139.5s58.53-7.63,58.53-76.61V0H0V62.89c0,69.13,58.46,76.61,58.46,76.61Z"/><path class="cls-3" d="M112.22,4.55H4.3l.03,58.88c0,63.77,53.93,71.61,53.93,71.61,0,0,54-7.98,54-71.61l-.03-58.88Zm-4.5,4.5l.02,40.53H8.82l-.02-40.53H107.72Zm-24.84,110.2c-10.85,8.1-21.9,10.68-24.65,11.22-2.73-.52-13.49-2.99-24.28-10.94-16.68-12.28-25.13-31.16-25.13-56.1v-9.35H107.74v9.35c0,24.72-8.36,43.5-24.86,55.81Z"/></g><g><path class="cls-1" d="M81.09,120.76h.25v-.17c-.08,.06-.17,.12-.25,.17Z"/><path class="cls-1" d="M35.54,92.32v22.77c.17,.13,.33,.28,.51,.41,2.72,2.06,5.44,3.72,8.03,5.08v-30.21c4.36-.8,9.36-1.4,14.51-1.4s10.16,.5,14.22,1.19v30.34c2.57-1.35,5.27-3,7.96-5.05,.2-.15,.38-.31,.58-.47v-22.89c3.61,1.05,5.65,1.96,5.69,1.98l3.58-7.75c-.26-.12-3.59-1.63-9.27-3.09v-24.72h-8.54v22.98c-4.16-.63-8.93-1.07-14.22-1.07s-10.09,.53-14.51,1.26v-23.18h-8.54v24.96c-5.28,1.33-8.71,2.62-9,2.73l3.03,7.98c.06-.02,2.31-.86,5.97-1.87Z"/></g></g><g><path class="cls-3" d="M17.77,33.69h.55c.58,0,.58,.25,.58,.36v5.91c0,.73-.22,1.24-.68,1.56-.47,.32-1.05,.49-1.74,.49-1.61,0-2.4-.67-2.4-2.05v-5.91c0-.11,0-.36,.58-.36h.57v-.88h-4.79v.88h.55c.58,0,.58,.25,.58,.36v5.75c0,1.15,.39,2.01,1.16,2.55,.75,.52,1.84,.79,3.24,.79s2.38-.28,3.09-.83c.73-.56,1.09-1.41,1.09-2.51v-5.75c0-.11,0-.36,.58-.36h.57v-.88h-3.56v.88Z"/><path class="cls-3" d="M29.02,33.69h.61c.61,0,.61,.25,.61,.36v5.57l-4.67-6.74-.05-.08h-3.64v.88h.6c.29,0,.44,.05,.51,.1,.05,.03,.12,.09,.12,.26v7.72c0,.15-.06,.22-.12,.26-.07,.05-.21,.1-.51,.1h-.6v.87h3.7v-.87h-.61c-.28,0-.42-.05-.49-.1-.05-.03-.11-.09-.11-.26v-6.98l5.69,8.14,.05,.07h1.41v-8.95c0-.11,0-.36,.61-.36h.61v-.88h-3.71v.88Z"/><path class="cls-3" d="M33.46,33.69h.6c.61,0,.61,.25,.61,.36v7.72c0,.11,0,.36-.61,.36h-.6v.87h4.93v-.87h-.6c-.23,0-.41-.04-.51-.1-.08-.06-.12-.14-.12-.26v-7.72c0-.17,.07-.23,.12-.26,.07-.05,.22-.1,.51-.1h.6v-.88h-4.93v.88Z"/><path class="cls-3" d="M46.41,33.69h.46c.12,0,.24,.03,.34,.09,.08,.04,.11,.1,.11,.18,0,.04,0,.08-.02,.11l-2.24,6.15-2.2-6.21c-.02-.08-.02-.11-.02-.11,0-.06,.02-.1,.08-.14,.08-.05,.19-.08,.33-.08h.47v-.88h-4.65v.88h.47c.14,0,.27,.03,.39,.1,.11,.06,.19,.15,.24,.28l3.44,8.84,.04,.11h1.86l3.42-8.93c.05-.13,.14-.22,.29-.29,.17-.08,.33-.12,.5-.12h.4v-.88h-3.72v.88Z"/><path class="cls-3" d="M58.87,40.11c-.07,.54-.2,.99-.39,1.33-.17,.3-.44,.45-.81,.45h-3.03v-3.63h1.92c.27,0,.36,.12,.4,.22,.09,.2,.15,.51,.18,.91v.16h.79v-3.71h-.77v.16c-.05,.4-.11,.71-.2,.91-.04,.1-.13,.22-.4,.22h-1.92v-3.21h2.72c.74,0,1.15,.56,1.25,1.72v.16h.88v-3.01h-8.56v.88h.6c.29,0,.43,.05,.5,.1,.05,.03,.11,.09,.11,.26v7.72c0,.17-.06,.23-.11,.26-.07,.04-.21,.1-.5,.1h-.6v.87h8.53l.32-3.04h-.88l-.02,.15Z"/><path class="cls-3" d="M69.42,42.11c-.18-.18-.33-.4-.44-.66-.11-.26-.23-.61-.35-1.04-.12-.44-.26-.81-.41-1.1-.13-.25-.33-.45-.59-.61,.58-.2,1-.52,1.27-.97,.29-.49,.43-1.12,.43-1.88,0-.99-.26-1.76-.77-2.28-.51-.52-1.37-.78-2.56-.78h-5.35v.7h.5c.26,0,.45,.04,.56,.12,.11,.07,.16,.19,.16,.36v7.95c0,.16-.05,.27-.17,.35-.12,.08-.31,.12-.56,.12h-.5v.69h4.73v-.69h-.51c-.25,0-.43-.04-.54-.12-.11-.07-.16-.19-.16-.36v-2.98h1.46c.18,.15,.32,.35,.41,.6,.09,.27,.19,.64,.28,1.1,.07,.35,.14,.66,.21,.92,.15,.53,.38,.92,.67,1.16,.29,.24,.73,.36,1.31,.36h1.66v-.68h-.07c-.28-.01-.51-.1-.69-.28Zm-5.24-8.38h1.32c.54,0,.94,.17,1.19,.51,.25,.34,.38,.88,.38,1.61s-.13,1.28-.38,1.63c-.25,.34-.64,.51-1.19,.51h-1.32v-4.25Z"/><path class="cls-3" d="M77.48,37.52c-.43-.23-1-.47-1.67-.71-.52-.2-.93-.37-1.21-.51-.28-.13-.51-.31-.7-.52-.18-.2-.28-.46-.28-.77,0-.43,.17-.75,.51-.99,.35-.24,.78-.36,1.3-.36,.64,0,1.19,.18,1.65,.54,.45,.35,.73,.89,.81,1.59v.07h.77v-3.09h-.88v.69s0,.07,0,.07c0,0-.02,0-.07-.04-.05-.04-.09-.06-.1-.06-.32-.22-.7-.4-1.11-.53-.41-.13-.94-.2-1.56-.2-1.11,0-2,.22-2.65,.67-.66,.45-1,1.11-1,1.98,0,.6,.15,1.1,.44,1.5,.29,.39,.64,.71,1.04,.93,.4,.22,.94,.47,1.6,.74,.54,.21,.97,.4,1.29,.56,.31,.16,.57,.36,.77,.61,.2,.24,.3,.54,.3,.89,0,.56-.19,.97-.57,1.24-.39,.28-.9,.42-1.52,.42-.42,0-.83-.08-1.22-.24-.39-.16-.73-.4-1-.73-.28-.33-.44-.73-.5-1.2v-.07h-.77v3.09h.87v-.71s0-.07,.02-.1h0s.07,0,.15,.06c.36,.26,.77,.47,1.21,.62,.45,.15,1.04,.23,1.77,.23,1.14,0,2.09-.25,2.81-.74,.73-.5,1.09-1.25,1.09-2.25,0-.67-.16-1.23-.46-1.67-.31-.43-.68-.77-1.12-1Z"/><path class="cls-3" d="M79.92,33.69h.6c.61,0,.61,.25,.61,.36v7.72c0,.11,0,.36-.61,.36h-.6v.87h4.93v-.87h-.6c-.23,0-.41-.04-.51-.1-.08-.06-.12-.14-.12-.26v-7.72c0-.17,.07-.23,.12-.26,.07-.05,.22-.1,.51-.1h.6v-.88h-4.93v.88Z"/><path class="cls-3" d="M85.56,36.29h.88v-.17c.01-.47,.09-.97,.25-1.5,.2-.69,.54-.69,.65-.69h1.7v7.84c0,.15-.06,.22-.12,.26-.07,.05-.21,.1-.51,.1h-.6v.87h4.95v-.87h-.61c-.61,0-.61-.25-.61-.36v-7.84h1.68c.11,0,.44,0,.65,.69,.15,.53,.24,1.03,.25,1.5v.17h.9v-3.49h-9.45v3.49Z"/><path class="cls-3" d="M102.34,32.8v.88h.55c.11,0,.21,.03,.31,.09,.09,.05,.1,.1,.1,.14,0,0,0,.04-.05,.12l-2.01,3.45-1.86-3.52s-.02-.06-.02-.09c0-.02,0-.07,.09-.13,.08-.05,.17-.08,.27-.08h.55v-.88h-4.51v.88h.47c.12,0,.23,.03,.35,.1,.11,.07,.21,.17,.29,.3l2.68,4.71v2.96c0,.17-.06,.23-.11,.26-.07,.04-.21,.1-.5,.1h-.6v.87h4.93v-.87h-.61c-.61,0-.61-.25-.61-.36v-2.93l2.82-4.72c.07-.13,.17-.23,.33-.31,.16-.08,.32-.12,.48-.12h.4v-.88h-3.74Z"/></g><path class="cls-3" d="M41.03,16.38h4.95v.88h-.61c-.61,0-.61,.25-.61,.36v7.72c0,.11,0,.36,.61,.36h.61v.87h-4.95v-.87h.6c.23,0,.41-.04,.51-.1,.08-.06,.12-.13,.12-.26v-3.47h-3.92v3.47c0,.17,.06,.23,.11,.26,.07,.04,.21,.1,.49,.1h.61v.87h-4.93v-.87h.6c.29,0,.44-.06,.51-.1,.06-.04,.12-.1,.12-.26v-7.72c0-.17-.07-.23-.12-.26-.07-.05-.21-.1-.51-.1h-.6v-.88h4.93v.88h-.61c-.28,0-.42,.05-.49,.1-.05,.03-.11,.09-.11,.26v3.13h3.92v-3.13c0-.17-.07-.23-.12-.26-.07-.04-.22-.1-.51-.1h-.6v-.88Zm24.78,7.14c-.06,.45-.21,.9-.42,1.35-.19,.4-.45,.6-.78,.6h-2.52c-.58,0-.65-.25-.65-.49v-7.35c0-.11,0-.36,.61-.36h.6v-.88h-4.93v.88h.6c.29,0,.44,.05,.51,.1,.05,.03,.12,.09,.12,.26v7.72c0,.16-.07,.22-.12,.26-.07,.05-.21,.1-.51,.1h-.6v.87h8.73l.32-3.2h-.92l-.02,.15Zm1.36-6.25h.6c.61,0,.61,.25,.61,.36v7.72c0,.11,0,.36-.61,.36h-.6v.87h4.93v-.87h-.6c-.23,0-.41-.04-.51-.1-.08-.06-.12-.14-.12-.26v-7.72c0-.17,.07-.23,.12-.26,.07-.05,.22-.1,.51-.1h.6v-.88h-4.93v.88Zm1.7-1.81c.19,.19,.44,.29,.75,.29s.55-.1,.74-.29c.19-.19,.29-.44,.29-.73s-.1-.55-.29-.75c-.19-.2-.44-.3-.74-.3s-.56,.1-.75,.3c-.18,.2-.28,.45-.28,.75s.09,.53,.28,.73h0Zm13.26,8.34l-.05,.21c-.19,.8-.66,1.46-1.4,1.96-.73,.5-1.68,.75-2.8,.75-1.66,0-2.94-.47-3.8-1.41-.87-.93-1.31-2.22-1.31-3.83,0-1.05,.2-1.98,.58-2.76,.39-.79,.98-1.41,1.75-1.83,.76-.43,1.7-.64,2.8-.64s2.09,.28,2.93,.82v-.75h1.07v3.25h-.93l-.02-.15c-.09-.68-.36-1.17-.84-1.5-.48-.34-1.06-.51-1.73-.51-.96,0-1.7,.35-2.24,1.07-.55,.72-.83,1.74-.83,3.02s.25,2.32,.74,3.04c.49,.71,1.18,1.06,2.12,1.06,.62,0,1.2-.14,1.72-.4,.5-.26,.88-.69,1.11-1.27l.04-.11h1.1Zm-1.33-6.54h0l.08-.14h0s-.03,0-.04,.02l-.04,.12Zm-4.02,10.94c-.3,.53-.7,1.25-.7,1.25h1.27c.15,0,.3-.06,.41-.16l1.75-1.87h-2.61s.18,.24-.12,.77Zm-19.33-2.49v.87h-4.65v-.87h.46c.22,0,.31-.04,.34-.06,.02-.01,.06-.04,.06-.14s-.03-.24-.09-.39l-.45-1.24h-3.5l-.51,1.36c-.02,.06-.03,.12-.03,.18,0,.09,.03,.15,.1,.2,.09,.06,.21,.09,.34,.09h.47v.87h-3.74v-.87h.4c.17,0,.34-.04,.5-.12,.15-.07,.24-.17,.29-.29l3.46-8.93h1.88l3.56,8.96c.05,.13,.13,.22,.24,.28,.12,.07,.25,.1,.39,.1h.47Zm-4.74-2.94l-1.31-3.6-1.35,3.6h2.66Z"/></g></g></svg>