<?xml version="1.0" encoding="utf-8"?>
<!-- Generator: Adobe Illustrator 19.0.0, SVG Export Plug-In . SVG Version: 6.00 Build 0)  -->
<svg version="1.1" id="Layer_1" xmlns="http://www.w3.org/2000/svg" xmlns:xlink="http://www.w3.org/1999/xlink" x="0px" y="0px"
	 viewBox="-869.5 581.5 445.5 134.4" style="enable-background:new -869.5 581.5 445.5 134.4;" xml:space="preserve">
<style type="text/css">
	.st0{fill:#23275E;}
	.st1{fill:#7D8286;}
</style>
<g>
	<path class="st0" d="M-793,606.9c-1.8-1.8-4.6-1.7-6.4,0c0,0,0,0,0,0l-13.4,13.4l13.4,13.4c1.8,1.8,4.6,1.7,6.4,0
		c1.8-1.8,1.7-4.6,0-6.4l-7.1-7l7-7.1C-791.2,611.5-791.2,608.7-793,606.9C-793,606.9-793,606.9-793,606.9 M-843.9,658
		c-1.8-1.8-1.8-4.6,0-6.4l13.4-13.4l13.4,13.4c1.8,1.7,1.8,4.6,0,6.4s-4.6,1.8-6.4,0l0,0l-7.1-7l-7,7.1
		C-839.3,659.8-842.1,659.8-843.9,658 M-868.1,633.9c1.8,1.7,4.6,1.7,6.4,0l13.4-13.4l-13.4-13.4c-1.8-1.8-4.6-1.7-6.4,0
		c-1.8,1.8-1.7,4.6,0,6.4l7.1,7l-7,7.1C-869.9,629.3-869.9,632.1-868.1,633.9C-868.1,633.9-868.1,633.9-868.1,633.9 M-817.2,582.8
		c1.8,1.8,1.8,4.6,0,6.4l-13.4,13.4l-13.4-13.4c-1.7-1.8-1.6-4.6,0.2-6.4c1.7-1.6,4.5-1.7,6.2,0l7.1,7l7-7.1
		C-821.8,581-819,581-817.2,582.8"/>
	<path class="st1" d="M-798.6,596.4c-1.8-1.8-4.6-1.7-6.4,0l-23.9,24l24,23.9c1.8,1.7,4.6,1.6,6.4-0.2c1.6-1.7,1.6-4.5,0-6.2
		l-17.6-17.5l17.5-17.6C-796.8,601-796.8,598.1-798.6,596.4C-798.6,596.4-798.6,596.4-798.6,596.4 M-854.4,652.4
		c-1.8-1.8-1.8-4.6,0-6.4l23.9-24l24,23.9c1.8,1.8,1.8,4.6,0,6.4c-1.8,1.8-4.6,1.8-6.4,0l-17.6-17.5l-17.5,17.6
		C-849.8,654.2-852.6,654.2-854.4,652.4 M-862.5,644.4c1.8,1.8,4.6,1.7,6.4,0l23.9-24l-24-23.9c-1.8-1.8-4.6-1.7-6.4,0
		c-1.8,1.8-1.7,4.6,0,6.4l17.6,17.5l-17.5,17.6C-864.2,639.8-864.2,642.7-862.5,644.4C-862.5,644.4-862.5,644.4-862.5,644.4
		 M-806.7,588.4c1.8,1.7,1.8,4.6,0,6.4l-23.9,24l-24-23.9c-1.7-1.8-1.6-4.6,0.2-6.4c1.7-1.6,4.4-1.7,6.2,0l17.6,17.5l17.5-17.6
		C-811.3,586.6-808.4,586.6-806.7,588.4"/>
	<path class="st0" d="M-727.6,635.2v-0.5c-2-0.8-2.5-1.9-3.4-5.8l-7.5-32.1h-0.6l-13,29.2l-13.3-29.2h-0.5l-7,31.9
		c-0.8,3.7-1.1,5.2-3.3,6v0.5c1.7-0.1,4-0.1,6.4-0.1c1.1,0,2.3,0,3.3,0.1v-0.5c-1.2-0.3-1.9-0.9-1.9-1.8c0-0.7,0.2-1.6,0.3-2.2
		l3.9-20.2l12,25.9h0.5l11.3-25.9l4.3,21c0.1,0.4,0.2,1.1,0.2,1.4c0,1-0.7,1.5-1.8,1.8v0.5c1.5-0.1,3.2-0.1,4.8-0.1
		C-731.3,635.1-729.4,635.1-727.6,635.2L-727.6,635.2z M-703,628l-0.5-0.1c-0.7,2-2.4,3-6.6,3l-3.4,0c-3.4,0-4.5,0-4.5-3.3l0-9.7
		l6.6,0c4,0,5.7,0.8,6.2,2.7h0.4c-0.1-1.6-0.1-3.2-0.1-4.8c0-1.6,0-3.5,0.1-5.1h-0.4c-0.7,2-2.2,2.9-6.2,2.9l-6.6,0l0-10.9l6.3,0
		c4.3,0,6.3,0,7.5,2.6h0.6l0-6.8l-22.6,0v0.5c2.3,0.5,2.8,2.5,2.8,7.6l0,20.5c0,5.1-0.4,7.1-2.7,7.6v0.5l22.3,0
		C-703.8,635.2-703,628-703,628z M-666.8,616.8c0-11.2-7-18.4-19.8-18.4l-12.9,0v0.6c2.3,0.5,2.8,2.5,2.8,7.6l0,20.5
		c0,5.3-0.5,7-2.7,7.5v0.5l13.2,0C-673.9,635.1-666.8,628.2-666.8,616.8z M-672.4,616.9c0,9.2-5.5,14-12.9,14
		c-5.7,0-5.8-1.3-5.8-4.3l0-23.4c1.6-0.2,3.3-0.5,4.9-0.5C-677.9,602.7-672.5,608.1-672.4,616.9z M-654.9,635.1v-0.5
		c-2.1-0.5-2.8-2-2.8-7.5l0-20.6c0-5.2,0.5-7.1,2.8-7.6l0-0.5c-1.9,0.1-3.8,0.1-5.5,0.1c-1.9,0-3.7,0-5.6-0.1l0,0.5
		c2.3,0.5,2.8,2.4,2.8,7.6l0,20.6c0,5.4-0.5,7-2.7,7.5v0.5c1.9-0.1,3.8-0.1,5.7-0.1C-658.5,635-656.5,635-654.9,635.1L-654.9,635.1z
		 M-657.2,592.7c0-1.8-1.5-3.2-3.3-3.2c-1.8,0-3.2,1.4-3.2,3.2c0,0,0,0,0,0.1c0,1.8,1.5,3.2,3.3,3.2
		C-658.7,596-657.2,594.5-657.2,592.7z M-626,608.7c0-5.5-3.3-9.1-9-10c-1.8-0.3-3.5-0.3-5.1-0.3l-12.1,0l0,0.6
		c2.3,0.5,2.8,2.5,2.8,7.6l0,20.5c0,5.3-0.5,7-2.7,7.5l0,0.5c1.8-0.1,3.6-0.1,5.3-0.1c1.4,0,3.4,0,5.7,0l0-0.5
		c-2.1-0.3-2.8-2.1-2.8-7.5l-0.1-24.1c1-0.2,2.2-0.3,3.9-0.3c5.4,0,8.1,2.2,8.1,6.1c0,4.5-3.7,6.6-7.2,6.6c-0.7,0-1.4-0.1-2.1-0.2
		l-0.4,0.1l1.4,4.3c0.5,0.1,1.4,0.2,2.2,0.2C-631.6,619.7-626,615.6-626,608.7L-626,608.7z M-587.1,616.6c0-11.3-7.4-19.2-19-19.2
		c-11.7,0-19.2,7.9-19.2,19.3c0,10.7,7.2,19.2,19.3,19.2C-593.8,635.9-587,627.4-587.1,616.6z M-592.7,616.6
		c0,9.3-5.8,14.9-13.3,14.9c-8.1,0-13.6-5.5-13.6-14.8c0-8.2,5-14.8,13.5-14.9C-597.8,601.8-592.7,607.9-592.7,616.6L-592.7,616.6z
		 M-564.9,627.9l-0.4-0.1c-1.1,2.5-2.7,2.9-5.7,2.9l-3,0c-4.1,0-4-0.4-4-7.1l0-17.3c0-5.1,0.5-7.1,2.6-7.6l0-0.5
		c-1.9,0.1-3.8,0.1-5.4,0.1c-1.8,0-3.7,0-5.5-0.1v0.5c2.3,0.5,2.8,2.5,2.8,7.6l0,20.6c0,4.9-0.4,7.1-2.7,7.6l0,0.4l20.5,0
		L-564.9,627.9L-564.9,627.9z"/>
	<path class="st1" d="M-742.8,649.5l0-0.5c-1.9,0.1-3.8,0.1-5.4,0.1c-1.7,0-3.6,0-5.6-0.1v0.5c2.1,0.5,2.8,2.3,2.8,7.6l0,14.2
		c0,2.9-0.1,5.3-1.3,7.2c-1.4,2.3-4.1,3.7-7.3,3.8c-4,0-6.9-2-8.1-5.2c-0.6-1.5-0.7-3.7-0.7-6.3l0-13.6c0-5.1,0.5-7.1,2.7-7.6V649
		c-2,0.1-3.8,0.1-5.4,0.1c-1.8,0-3.6,0-5.6-0.1v0.5c2.3,0.5,2.8,2.4,2.8,7.6l0,15.1c0,2.8,0.1,5.3,1.6,8c2.3,4.1,7,6.4,12.6,6.4
		c6.3,0,10.8-2.6,12.8-7c1.3-2.8,1.3-5.6,1.3-8.5l0-14C-745.6,651.8-745,650-742.8,649.5z M-704.2,649.4v-0.5
		c-1.8,0-3.6,0.1-5.1,0.1c-1.5,0-3.5-0.1-5.6-0.1v0.5c2.5,0.1,3.1,2.1,3.1,7.6l0,17.7l-25.1-27.8h-0.5l0.1,30.7c0,5.3-0.5,7-2.7,7.5
		v0.5c1.7-0.1,3.4-0.1,5.1-0.1c1.7,0,3.7,0,5.6,0.1l0-0.5c-2.3-0.2-3-2-3-7.5l0-18l25.1,27.6h0.5l-0.1-30.3
		C-706.9,652.2-706.6,649.9-704.2,649.4L-704.2,649.4z M-665.1,649.3v-0.5c-1.9,0.1-4.1,0.1-6.2,0.1c-1.2,0-2.6-0.1-3.8-0.1v0.5
		c1,0.2,1.4,0.7,1.4,1.5c0,1.2-0.3,1.9-0.7,2.7l-9.7,22.9l-8.6-20.6c-0.8-1.9-1.4-3.5-1.4-4.4c0-1.2,0.6-1.8,1.6-2.1v-0.5
		c-4.7,0.1-8.3,0.1-10.5,0l0,0.5c1.5,0.4,2.1,1.3,3.5,4.4l15,33.4l0.8,0l13.9-31.7C-667.9,651.8-667.4,650.2-665.1,649.3z
		 M-654.4,669.9l-12.3,0l0,4l12.3,0L-654.4,669.9z M-639.1,685.4v-0.5c-2.1-0.5-2.8-2-2.8-7.5l0-20.6c0-5.2,0.5-7.1,2.8-7.6v-0.5
		c-1.9,0.1-3.8,0.1-5.5,0.1c-1.7,0-3.6,0-5.6-0.1l0,0.5c2.3,0.5,2.8,2.4,2.8,7.6l0,20.6c0,5.4-0.5,7-2.7,7.5v0.5
		c1.7-0.1,3.6-0.1,5.7-0.1C-642.7,685.3-640.7,685.4-639.1,685.4z M-641.4,643.1c0-1.8-1.5-3.2-3.3-3.2c-1.8,0-3.2,1.4-3.2,3.2
		c0,0,0,0,0,0.1c0,1.8,1.5,3.2,3.2,3.2C-642.9,646.3-641.4,644.9-641.4,643.1L-641.4,643.1z M-615.2,675.5c0-12.6-15.4-11-15.4-18.2
		c0-3.4,3.2-5.1,5.9-5.1c3.1,0,5.9,1,7.6,3.3h0.6l0-6.8l-0.6,0c-0.3,0.2-0.7,0.3-1,0.3c-1.2,0-3.6-1.2-7.1-1.2
		c-6.1,0-10.8,4.1-10.7,9.9c0,3.4,2,6.6,4.5,8.1c8.3,4.6,10.6,6,10.6,9.4c0,4.2-3.3,6.7-7,6.7c-2.8,0-6.2-1.3-8.1-3.8h-0.5l0.5,6.6
		c2.6,1,5.4,1.6,8.1,1.6C-620.1,686.3-615.2,682-615.2,675.5z M-587.6,655.5l-0.6-6.8l-24.1,0.1l-0.5,6.8l0.5,0
		c0.9-2,2.4-2.6,5.9-2.6l3.2,0l0.1,24.4c0,5.3-0.5,7-2.7,7.5v0.5c1.8-0.1,3.7-0.1,5.5-0.1c1.8,0,3.8,0.1,5.7,0.1l0-0.5
		c-2.3-0.5-3-1.9-3-7.5l-0.1-24.4l3.5,0c3.5,0,5,0.6,5.9,2.6H-587.6L-587.6,655.5z M-552.9,685.2v-0.5c-1.4-0.5-2.4-1.6-3.3-3.4
		l-15.5-34.5l-0.8,0l-14.8,33.6c-1.1,2.6-1.7,4.1-3.6,4.3v0.5c1.5-0.1,3-0.1,4.4-0.1c1.7,0,3.6,0,5.4,0.1v-0.5
		c-1-0.2-1.4-0.8-1.4-1.6c0-0.7,0.3-1.7,0.6-2.4l2.4-5.7l14.6,0l2.3,5.7c0.2,0.5,0.5,1.4,0.5,2c0,1.3-0.5,1.8-1.6,2.1l0,0.5
		c1.9-0.1,4.1-0.1,6.2-0.1C-556,685.1-554.5,685.2-552.9,685.2z M-566.4,670.8l-11.4,0l5.8-14L-566.4,670.8L-566.4,670.8z
		 M-515.9,649v-0.5c-1.8,0-3.6,0.1-5.1,0.1c-1.5,0-3.5-0.1-5.6-0.1v0.5c2.5,0.1,3.1,2.1,3.2,7.6l0,17.8l-25.1-27.8h-0.5l0.1,30.7
		c0,5.3-0.5,7-2.7,7.5v0.5c1.7-0.1,3.4-0.1,5.1-0.1c1.7,0,3.7,0,5.6,0.1l0-0.5c-2.3-0.2-3-2-3-7.5l0-18l25.1,27.6h0.5l-0.1-30.3
		C-518.5,651.8-518.2,649.5-515.9,649L-515.9,649z M-486.4,674.3c0-4.6-2.6-7.8-7.7-9.5c3.7-1.3,5.7-3.6,5.6-7.5c0-4-2.3-7-6.2-8.2
		c-1.8-0.5-4.2-0.6-7-0.6l-11.4,0v0.4c2.3,0.5,2.8,2.5,2.8,7.6l0,20.6c0,5.3-0.5,7-2.7,7.5v0.5l13.3,0
		C-490.8,685.1-486.4,681.6-486.4,674.3z M-494.1,657.7c0,4-3.6,5.9-7.8,5.9c-0.9,0-2,0-2.9,0l0-10.8c1.1-0.1,2.4-0.3,3.1-0.3
		C-496.9,652.4-494.1,653.9-494.1,657.7z M-492,674.3c0,4.6-3,6.5-9.1,6.6c-4,0-3.7-2-3.7-5.8l0-7.3c1-0.1,2.1-0.3,3.5-0.3
		C-495.1,667.5-492,669.8-492,674.3z M-450.7,648.8v-0.5c-1.9,0.1-3.8,0.1-5.4,0.1c-1.7,0-3.6,0-5.6-0.1v0.5
		c2.1,0.5,2.8,2.3,2.8,7.6l0,14.2c0,2.9-0.1,5.3-1.2,7.2c-1.4,2.3-4.1,3.7-7.3,3.8c-4,0-6.9-2-8.1-5.2c-0.6-1.5-0.7-3.7-0.7-6.3
		l0-13.6c0-5.1,0.5-7.1,2.7-7.6v-0.5c-2,0.1-3.8,0.1-5.4,0.1c-1.8,0-3.6-0.1-5.6-0.1l0,0.5c2.3,0.5,2.8,2.4,2.8,7.6l0,15.1
		c0,2.8,0.1,5.3,1.6,8c2.3,4.1,7,6.4,12.6,6.4c6.3,0,10.8-2.6,12.8-7c1.3-2.8,1.3-5.6,1.3-8.5l0-14
		C-453.4,651.2-452.9,649.3-450.7,648.8L-450.7,648.8z M-426.6,678l-0.4-0.1c-1.1,2.5-2.7,2.9-5.7,2.9l-3,0c-4.1,0-4-0.4-4-7.1
		l0-17.3c0-5.1,0.5-7.1,2.6-7.6v-0.5c-1.9,0.1-3.8,0.1-5.4,0.1c-1.6,0-3.5,0-5.5-0.1v0.5c2.3,0.5,2.8,2.5,2.8,7.6l0,20.6
		c0,4.9-0.4,7.1-2.7,7.6v0.4l20.5,0L-426.6,678L-426.6,678z"/>
	<path class="st0" d="M-769.7,715.2V715c-1-0.2-1.2-0.9-1.3-3.3l0-9.1c0-2.3,0.2-3.1,1.2-3.4V699c-0.8,0-1.7,0.1-2.4,0.1
		c-0.8,0-1.6,0-2.5,0v0.2c1,0.2,1.2,1.1,1.2,3.4l0,9.1c0,2.4-0.2,3.1-1.2,3.3v0.2c0.8,0,1.6-0.1,2.5-0.1
		C-771.3,715.2-770.5,715.2-769.7,715.2z M-770.8,696.4c0-0.8-0.6-1.4-1.4-1.4s-1.4,0.6-1.4,1.4c0,0.8,0.6,1.4,1.4,1.4
		S-770.8,697.2-770.8,696.4z M-758.7,710.8c0-5.6-6.8-4.9-6.8-8.1c0-1.5,1.4-2.2,2.6-2.2c1.4,0,2.6,0.5,3.4,1.5h0.2l0-3h-0.2
		c-0.1,0.1-0.3,0.2-0.5,0.1c-0.5,0-1.6-0.5-3.1-0.5c-2.7,0-4.8,1.8-4.8,4.4c0,1.5,0.9,2.9,2,3.6c3.7,2,4.7,2.7,4.7,4.2
		c0,1.9-1.5,3-3.1,3c-1.2,0-2.8-0.6-3.6-1.7h-0.2l0.2,2.9c1.2,0.4,2.4,0.7,3.6,0.7C-760.8,715.6-758.6,713.7-758.7,710.8z
		 M-746.4,701.9l-0.2-3l-10.7,0l-0.2,3h0.2c0.4-0.9,1.1-1.1,2.6-1.2l1.4,0l0,10.8c0,2.3-0.2,3.1-1.2,3.3v0.2c0.8,0,1.6-0.1,2.4-0.1
		c0.8,0,1.7,0,2.5,0v-0.2c-1-0.2-1.3-0.8-1.3-3.3l0-10.8l1.5,0c1.6,0,2.2,0.3,2.6,1.1C-746.6,701.9-746.4,701.9-746.4,701.9z
		 M-731,715.1v-0.2c-0.6-0.2-1.1-0.7-1.4-1.5l-6.9-15.3h-0.3l-6.5,14.9c-0.5,1.2-0.8,1.8-1.6,1.9v0.2c0.7,0,1.3-0.1,2-0.1
		c0.8,0,1.6,0,2.4,0l0-0.2c-0.4-0.1-0.6-0.4-0.6-0.7c0-0.3,0.1-0.8,0.3-1.1l1.1-2.5l6.5,0l1,2.5c0.1,0.2,0.2,0.6,0.2,0.9
		c0,0.6-0.2,0.8-0.7,0.9v0.2c0.9,0,1.8,0,2.7-0.1C-732.4,715.1-731.7,715.1-731,715.1z M-737,708.7l-5.1,0l2.6-6.2L-737,708.7z
		 M-714.6,699.1v-0.2c-0.8,0-1.6,0.1-2.2,0.1c-0.7,0-1.6,0-2.5,0v0.2c1.1,0,1.4,0.9,1.4,3.4l0,7.9L-729,698h-0.2l0,13.6
		c0,2.4-0.2,3.1-1.2,3.3v0.2c0.8,0,1.6-0.1,2.3-0.1c0.8,0,1.6,0,2.5,0v-0.2c-1-0.1-1.3-0.9-1.3-3.3l0-8l11.1,12.3h0.2l0-13.4
		C-715.8,700.3-715.6,699.3-714.6,699.1z M-701,710.3c0-2-1.2-3.5-3.4-4.2c1.7-0.6,2.5-1.6,2.5-3.4c0-1.8-1-3.1-2.8-3.6
		c-0.8-0.2-1.9-0.3-3.1-0.3l-5.1,0v0.2c1,0.2,1.2,1.1,1.2,3.4l0,9.1c0,2.3-0.2,3.1-1.2,3.3v0.2l5.9,0
		C-703,715.1-701,713.5-701,710.3z M-704.4,702.9c0,1.8-1.6,2.6-3.5,2.6c-0.4,0-0.9,0-1.3,0l0-4.8c0.5,0,1-0.1,1.4-0.1
		C-705.7,700.5-704.4,701.2-704.4,702.9L-704.4,702.9z M-703.5,710.3c0,2-1.3,2.9-4,2.9c-1.8,0-1.7-0.9-1.7-2.6l0-3.2
		c0.4,0,1-0.1,1.5-0.1C-704.9,707.2-703.5,708.3-703.5,710.3z M-684.2,699v-0.2c-0.9,0-1.7,0.1-2.4,0.1c-0.8,0-1.6,0-2.5,0v0.2
		c1,0.2,1.2,1,1.2,3.4l0,6.3c0,1.3,0,2.3-0.6,3.2c-0.6,1-1.8,1.7-3.2,1.7c-1.8,0-3.1-0.9-3.6-2.3c-0.2-0.7-0.3-1.6-0.3-2.8l0-6
		c0-2.3,0.2-3.1,1.2-3.4v-0.2c-0.9,0-1.7,0.1-2.4,0.1c-0.8,0-1.6,0-2.5,0v0.2c1,0.2,1.2,1.1,1.2,3.4l0,6.7c0,1.2,0,2.3,0.7,3.5
		c1,1.8,3.1,2.8,5.6,2.8c2.8,0,4.8-1.1,5.7-3.1c0.6-1.2,0.6-2.5,0.6-3.8l0-6.2C-685.4,700-685.2,699.2-684.2,699L-684.2,699z
		 M-673,711.9l-0.2-0.1c-0.5,1.1-1.2,1.3-2.5,1.3l-1.3,0c-1.8,0-1.8-0.2-1.8-3.1l0-7.7c0-2.3,0.2-3.1,1.2-3.4v-0.2
		c-0.9,0-1.7,0.1-2.4,0.1c-0.7,0-1.6,0-2.4,0v0.2c1,0.2,1.2,1.1,1.2,3.4l0,9.1c0,2.2-0.2,3.1-1.2,3.4v0.2l9.1,0
		C-673.4,715-673,711.9-673,711.9z M-647,714.9l0-0.2c-0.9-0.4-1.1-0.9-1.5-2.6l-3.3-14.2h-0.3l-5.7,13l-5.9-12.9h-0.2l-3.1,14.2
		c-0.4,1.7-0.5,2.3-1.5,2.7v0.2c0.8-0.1,1.8-0.1,2.8-0.1c0.5,0,1,0,1.5,0v-0.2c-0.5-0.1-0.8-0.4-0.8-0.8c0-0.3,0.1-0.7,0.1-1l1.7-9
		l5.3,11.5h0.2l5-11.5l1.9,9.3c0,0.2,0.1,0.5,0.1,0.6c0,0.4-0.3,0.7-0.8,0.8v0.2c0.7,0,1.4-0.1,2.1-0.1
		C-648.6,714.9-647.8,714.9-647,714.9L-647,714.9z M-636.1,711.7l-0.2,0c-0.3,0.9-1.1,1.3-2.9,1.3l-1.5,0c-1.5,0-2,0-2-1.5l0-4.3
		l2.9,0c1.8,0,2.5,0.4,2.8,1.2h0.2c0-0.7-0.1-1.4-0.1-2.1c0-0.7,0-1.5,0-2.2h-0.2c-0.3,0.9-1,1.3-2.8,1.3l-2.9,0l0-4.8l2.8,0
		c1.9,0,2.8,0,3.3,1.1h0.2l0-3l-10,0v0.2c1,0.2,1.2,1.1,1.2,3.4l0,9.1c0,2.2-0.2,3.1-1.2,3.4l0,0.2l9.9,0L-636.1,711.7L-636.1,711.7
		z M-620,706.8c0-4.9-3.1-8.2-8.8-8.1l-5.7,0v0.2c1,0.2,1.2,1.1,1.2,3.4l0,9.1c0,2.3-0.2,3.1-1.2,3.3v0.2l5.8,0
		C-623.2,714.9-620,711.8-620,706.8z M-622.5,706.8c0,4.1-2.4,6.2-5.7,6.2c-2.5,0-2.6-0.6-2.6-1.9l0-10.4c0.7-0.1,1.5-0.2,2.2-0.2
		C-625,700.5-622.5,702.9-622.5,706.8L-622.5,706.8z M-613.3,714.9v-0.2c-1-0.2-1.2-0.9-1.2-3.3l0-9.1c0-2.3,0.2-3.1,1.2-3.4v-0.2
		c-0.8,0-1.7,0.1-2.4,0.1c-0.8,0-1.6,0-2.5,0v0.2c1,0.2,1.2,1.1,1.2,3.4l0,9.1c0,2.4-0.2,3.1-1.2,3.3v0.2c0.8,0,1.6-0.1,2.5-0.1
		C-614.9,714.8-614,714.8-613.3,714.9z M-614.3,696.1c0-0.8-0.6-1.4-1.4-1.4c-0.8,0-1.4,0.6-1.4,1.4c0,0,0,0,0,0
		c0,0.8,0.6,1.4,1.4,1.4C-615,697.5-614.3,696.9-614.3,696.1z M-600,703.2c0-2.5-1.5-4-4-4.4c-0.7-0.1-1.5-0.2-2.2-0.1l-5.4,0v0.2
		c1,0.2,1.2,1.1,1.2,3.4l0,9.1c0,2.4-0.2,3.1-1.2,3.3v0.2c0.8,0,1.6,0,2.4,0c0.6,0,1.5,0,2.5,0v-0.2c-1-0.1-1.2-0.9-1.2-3.3l0-10.7
		c0.4-0.1,1-0.1,1.7-0.2c2.4,0,3.6,1,3.6,2.7c0,2-1.6,2.9-3.2,2.9c-0.3,0-0.6,0-0.9-0.1l-0.2,0l0.6,1.9c0.2,0,0.6,0.1,1,0.1
		C-602.4,708.1-600,706.2-600,703.2L-600,703.2z M-581.7,706.7c0-5-3.3-8.5-8.4-8.5c-5.2,0-8.5,3.5-8.5,8.5c0,4.7,3.2,8.5,8.6,8.5
		C-584.7,715.2-581.7,711.5-581.7,706.7L-581.7,706.7z M-584.2,706.7c0,4.1-2.6,6.6-5.9,6.6c-3.6,0-6-2.5-6-6.6c0-3.7,2.2-6.6,6-6.6
		C-586.5,700.1-584.3,702.8-584.2,706.7L-584.2,706.7z M-570.4,711.7l-0.2,0c-0.5,1.1-1.2,1.3-2.5,1.3l-1.3,0
		c-1.8,0-1.8-0.2-1.8-3.1l0-7.7c0-2.3,0.2-3.1,1.2-3.4v-0.2c-0.9,0-1.7,0.1-2.4,0.1c-0.7,0-1.6,0-2.4,0v0.2c1,0.2,1.2,1.1,1.2,3.4
		l0,9.1c0,2.2-0.2,3.1-1.2,3.4v0.2l9.1,0L-570.4,711.7L-570.4,711.7z M-549.9,698.7v-0.2c-0.9,0-1.7,0.1-2.4,0.1c-0.8,0-1.6,0-2.5,0
		v0.2c1,0.2,1.2,1,1.2,3.4l0,6.3c0,1.3,0,2.3-0.6,3.2c-0.6,1-1.8,1.7-3.2,1.7c-1.8,0-3.1-0.9-3.6-2.3c-0.2-0.7-0.3-1.6-0.3-2.8l0-6
		c0-2.3,0.2-3.1,1.2-3.4v-0.2c-0.9,0-1.7,0.1-2.4,0.1c-0.8,0-1.6,0-2.5,0v0.2c1,0.2,1.2,1.1,1.2,3.4l0,6.7c0,1.2,0,2.3,0.7,3.5
		c1,1.8,3.1,2.8,5.6,2.8c2.8,0,4.8-1.1,5.7-3.1c0.6-1.2,0.6-2.5,0.6-3.8l0-6.2C-551.1,699.7-550.9,698.9-549.9,698.7L-549.9,698.7z
		 M-554.3,696c0-0.6-0.5-1.2-1.1-1.2c0,0,0,0-0.1,0c-0.7,0-1.2,0.5-1.2,1.2c0,0.7,0.5,1.2,1.2,1.2
		C-554.8,697.2-554.3,696.7-554.3,696L-554.3,696z M-558.2,696c0-0.6-0.5-1.2-1.2-1.2c0,0,0,0,0,0c-0.6,0-1.2,0.5-1.2,1.1
		c0,0,0,0,0,0.1c0,0.7,0.5,1.2,1.2,1.2C-558.7,697.2-558.2,696.7-558.2,696C-558.2,696-558.2,696-558.2,696z M-532.3,698.6v-0.2
		c-0.8,0-1.6,0.1-2.2,0.1c-0.7,0-1.6,0-2.5,0v0.2c1.1,0,1.4,0.9,1.4,3.4l0,7.9l-11.1-12.3h-0.2l0,13.6c0,2.4-0.2,3.1-1.2,3.3v0.2
		c0.8,0,1.6-0.1,2.3-0.1c0.8,0,1.6,0,2.5,0v-0.2c-1-0.1-1.3-0.9-1.3-3.3l0-8l11.1,12.3h0.2l0-13.4
		C-533.5,699.9-533.4,698.9-532.3,698.6L-532.3,698.6z M-525.7,714.7v-0.2c-1-0.2-1.2-0.9-1.2-3.3l0-9.1c0-2.3,0.2-3.1,1.2-3.4v-0.2
		c-0.8,0-1.7,0.1-2.4,0.1c-0.8,0-1.6,0-2.5,0v0.2c1,0.2,1.2,1.1,1.2,3.4l0,9.1c0,2.4-0.2,3.1-1.2,3.3v0.2c0.8,0,1.6-0.1,2.5-0.1
		C-527.3,714.6-526.4,714.6-525.7,714.7L-525.7,714.7z M-526.7,695.9c0-0.8-0.6-1.4-1.4-1.4c-0.8,0-1.4,0.6-1.4,1.4c0,0,0,0,0,0
		c0.1,0.8,0.7,1.4,1.5,1.3C-527.3,697.2-526.8,696.6-526.7,695.9L-526.7,695.9z M-508.4,698.6v-0.2c-0.9,0.1-1.8,0.1-2.7,0.1
		c-0.5,0-1.1,0-1.7,0v0.2c0.4,0.1,0.6,0.3,0.6,0.7c0,0.5-0.1,0.9-0.3,1.2l-4.3,10.2l-3.8-9.1c-0.3-0.8-0.6-1.6-0.6-1.9
		c0-0.5,0.3-0.8,0.7-0.9v-0.2c-2.1,0.1-3.7,0.1-4.7,0v0.2c0.7,0.2,0.9,0.6,1.6,2l6.6,14.8h0.4l6.2-14.1
		C-509.6,699.7-509.4,699-508.4,698.6z M-497.4,711.4l-0.2,0c-0.3,0.9-1.1,1.3-2.9,1.3l-1.5,0c-1.5,0-2,0-2-1.5l0-4.3l2.9,0
		c1.8,0,2.5,0.4,2.8,1.2l0.2,0c0-0.7-0.1-1.4-0.1-2.1c0-0.7,0-1.5,0-2.2h-0.2c-0.3,0.9-1,1.3-2.8,1.3l-2.9,0l0-4.8l2.8,0
		c1.9,0,2.8,0,3.3,1.1h0.2l0-3l-10,0v0.2c1,0.2,1.2,1.1,1.2,3.4l0,9.1c0,2.2-0.2,3.1-1.2,3.4v0.2l9.9,0L-497.4,711.4L-497.4,711.4z
		 M-482.1,714.6v-0.2c-0.7-0.2-1-0.6-1.7-1.6l-3.9-5.6c2.4-0.6,3.6-2.2,3.6-4.4c0-2.7-1.9-4.4-5.8-4.4l-6,0v0.2
		c1,0.2,1.2,1.1,1.2,3.4l0,9.1c0,2.3-0.2,3.1-1.2,3.3v0.2c0.8,0,1.7-0.1,2.4-0.1c0.8,0,1.7,0,2.5,0v-0.2c-1-0.2-1.2-0.9-1.2-3.3
		l0-10.7c0.8-0.1,1.4-0.1,1.9-0.2c2.6,0,3.7,1.2,3.7,2.8c0,1.7-1.2,3-3.6,3c-0.3,0-0.7,0-1-0.1l-0.1,0.2l4.7,7.2
		c0.8,1.2,1.2,1.6,2.6,1.6C-483.8,714.7-483,714.7-482.1,714.6z M-471.9,710.2c0-5.6-6.8-4.9-6.8-8.1c0-1.5,1.4-2.2,2.6-2.2
		c1.4,0,2.6,0.5,3.4,1.5h0.2l0-3h-0.2c-0.1,0.1-0.3,0.2-0.5,0.1c-0.5,0-1.6-0.5-3.1-0.5c-2.7,0-4.8,1.8-4.8,4.4c0,1.5,0.9,3,2,3.6
		c3.7,2,4.7,2.7,4.7,4.2c0,1.9-1.5,3-3.1,3c-1.2,0-2.8-0.6-3.6-1.7h-0.2l0.2,2.9c1.2,0.4,2.4,0.7,3.6,0.7
		C-474.1,715-471.9,713.1-471.9,710.2L-471.9,710.2z M-465.4,714.5l0-0.2c-1-0.2-1.2-0.9-1.3-3.3l0-9.1c0-2.3,0.2-3.1,1.2-3.4v-0.2
		c-0.8,0-1.7,0.1-2.4,0.1c-0.8,0-1.6,0-2.5,0v0.2c1,0.2,1.2,1.1,1.2,3.4l0,9.1c0,2.4-0.2,3.1-1.2,3.3v0.2c0.8,0,1.6,0,2.5-0.1
		C-467,714.5-466.1,714.5-465.4,714.5L-465.4,714.5z M-466.4,695.8c-0.1-0.8-0.7-1.4-1.5-1.3c-0.7,0-1.3,0.6-1.3,1.3
		c0.1,0.8,0.7,1.4,1.5,1.3C-467,697.1-466.5,696.5-466.4,695.8z M-453,701.3l-0.2-3l-10.7,0l-0.2,3h0.2c0.4-0.9,1.1-1.1,2.6-1.2
		l1.4,0l0,10.8c0,2.3-0.2,3.1-1.2,3.3v0.2c0.8,0,1.6-0.1,2.4-0.1c0.8,0,1.7,0,2.5,0v-0.2c-1-0.2-1.3-0.8-1.3-3.3l0-10.8l1.5,0
		c1.6,0,2.2,0.3,2.6,1.1H-453L-453,701.3z M-441.5,711.3l-0.2,0c-0.3,0.9-1.1,1.3-2.9,1.3l-1.5,0c-1.5,0-2,0-2-1.5l0-4.3l2.9,0
		c1.8,0,2.5,0.4,2.8,1.2h0.2c0-0.7,0-1.4-0.1-2.1c0-0.7,0-1.5,0-2.2h-0.2c-0.3,0.9-1,1.3-2.8,1.3l-2.9,0l0-4.8l2.8,0
		c1.9,0,2.8,0,3.3,1.1h0.2l0-3l-10,0v0.2c1,0.2,1.2,1.1,1.2,3.4l0,9.1c0,2.2-0.2,3.1-1.2,3.4v0.2l9.9,0L-441.5,711.3L-441.5,711.3z
		 M-430.5,710.1c0-5.6-6.8-4.9-6.8-8.1c0-1.5,1.4-2.2,2.6-2.2c1.4,0,2.6,0.5,3.4,1.5h0.2l0-3h-0.2c-0.1,0.1-0.3,0.2-0.5,0.1
		c-0.5,0-1.6-0.5-3.1-0.5c-2.7,0-4.8,1.8-4.8,4.4c0,1.5,0.9,2.9,2,3.6c3.7,2,4.7,2.7,4.7,4.2c0,1.9-1.5,3-3.1,3
		c-1.2,0-2.8-0.6-3.6-1.7l-0.2,0l0.2,2.9c1.2,0.4,2.4,0.7,3.6,0.7C-432.7,714.9-430.5,713-430.5,710.1z M-424,714.4v-0.2
		c-1-0.2-1.2-0.9-1.3-3.3l0-9.1c0-2.3,0.2-3.1,1.2-3.4v-0.2c-0.8,0-1.6,0-2.4,0.1c-0.8,0-1.6,0-2.5,0v0.2c1,0.2,1.2,1.1,1.2,3.4
		l0,9.1c0,2.4-0.2,3.1-1.2,3.3l0,0.2c0.8,0,1.6-0.1,2.5-0.1C-425.6,714.4-424.7,714.4-424,714.4z M-425,695.7
		c-0.1-0.8-0.7-1.4-1.5-1.3c-0.7,0-1.3,0.6-1.3,1.3c0.1,0.8,0.7,1.4,1.5,1.3C-425.7,697-425.1,696.4-425,695.7L-425,695.7z"/>
</g>
</svg>
